<svg width="40" height="40" viewBox="0 0 40 40" fill="none" xmlns="http://www.w3.org/2000/svg">
<g clip-path="url(#clip0_1067_650)">
<path d="M0 40C0 35.9586 1.60544 32.0827 4.46313 29.225C7.32083 26.3673 11.1967 24.7619 15.2381 24.7619C19.2795 24.7619 23.1554 26.3673 26.0131 29.225C28.8708 32.0827 30.4762 35.9586 30.4762 40H0ZM15.2381 22.8571C8.92381 22.8571 3.80952 17.7429 3.80952 11.4286C3.80952 5.11429 8.92381 0 15.2381 0C21.5524 0 26.6667 5.11429 26.6667 11.4286C26.6667 17.7429 21.5524 22.8571 15.2381 22.8571ZM29.2629 27.1105C32.1765 27.8593 34.7796 29.5083 36.7016 31.8225C38.6236 34.1368 39.7665 36.9984 39.9676 40H34.2857C34.2857 35.0286 32.381 30.5029 29.2629 27.1105ZM25.4095 22.7752C27.0057 21.3476 28.2822 19.5987 29.1554 17.6433C30.0285 15.6879 30.4786 13.5701 30.4762 11.4286C30.4802 8.82565 29.8144 6.26547 28.5429 3.99429C30.7003 4.42779 32.641 5.595 34.0351 7.29752C35.4293 9.00004 36.1909 11.1328 36.1905 13.3333C36.191 14.6904 35.9014 16.0319 35.3412 17.268C34.7809 18.504 33.9629 19.606 32.942 20.5001C31.9211 21.3942 30.7209 22.0597 29.4218 22.4521C28.1227 22.8445 26.7547 22.9547 25.4095 22.7752Z" fill="#2B2C33"/>
</g>
<defs>
<clipPath id="clip0_1067_650">
<rect width="40" height="40" fill="white"/>
</clipPath>
</defs>
</svg>
