<svg width="40" height="40" viewBox="0 0 40 40" fill="none" xmlns="http://www.w3.org/2000/svg">
<g clip-path="url(#clip0_1067_657)">
<path d="M0 21.8682H11.0085C11.3524 28.2335 13.3813 34.393 16.8876 39.7166C12.4957 39.0267 8.45625 36.901 5.40077 33.6716C2.34528 30.4423 0.446043 26.2915 0 21.8682ZM0 17.8483C0.446043 13.4251 2.34528 9.27426 5.40077 6.04495C8.45625 2.81563 12.4957 0.689861 16.8876 0C13.3813 5.32357 11.3524 11.4831 11.0085 17.8483H0ZM39.998 17.8483H28.9895C28.6456 11.4831 26.6167 5.32357 23.1104 0C27.5023 0.689861 31.5417 2.81563 34.5972 6.04495C37.6527 9.27426 39.5519 13.4251 39.998 17.8483ZM39.998 21.8682C39.5519 26.2915 37.6527 30.4423 34.5972 33.6716C31.5417 36.901 27.5023 39.0267 23.1104 39.7166C26.6167 34.393 28.6456 28.2335 28.9895 21.8682H40H39.998ZM15.0344 21.8682H24.9636C24.6327 27.2941 22.9241 32.546 19.999 37.1278C17.0739 32.546 15.3652 27.2941 15.0344 21.8682ZM15.0344 17.8483C15.3652 12.4225 17.0739 7.17062 19.999 2.58881C22.9241 7.17062 24.6327 12.4225 24.9636 17.8483H15.0344Z" fill="#2B2C33"/>
</g>
<defs>
<clipPath id="clip0_1067_657">
<rect width="40" height="40" fill="white"/>
</clipPath>
</defs>
</svg>
