<svg width="40" height="40" viewBox="0 0 40 40" fill="none" xmlns="http://www.w3.org/2000/svg">
<g clip-path="url(#clip0_1067_643)">
<path d="M39.9978 29.8206V37.6779C39.998 38.2405 39.7849 38.7822 39.4014 39.1938C39.0178 39.6054 38.4924 39.8562 37.9312 39.8956C36.9602 39.9622 36.1669 39.9978 35.5536 39.9978C15.9169 39.9978 0 24.0809 0 4.4442C0 3.8309 0.0333315 3.03761 0.102217 2.06655C0.141597 1.50535 0.392381 0.97997 0.803963 0.596431C1.21555 0.212892 1.75729 -0.000254282 2.31987 5.70145e-07H10.1772C10.4528 -0.000278506 10.7187 0.101903 10.9232 0.286696C11.1277 0.471489 11.2563 0.7257 11.2838 0.999945C11.3349 1.51103 11.3816 1.91767 11.426 2.22654C11.8676 5.30842 12.7726 8.30583 14.1103 11.1172C14.3214 11.5616 14.1837 12.0927 13.7837 12.3771L8.98839 15.8036C11.9203 22.6353 17.3647 28.0797 24.1964 31.0116L27.6185 26.2252C27.7583 26.0297 27.9624 25.8894 28.1951 25.8289C28.4278 25.7684 28.6743 25.7915 28.8917 25.8941C31.7027 27.2293 34.6994 28.132 37.7801 28.5717C38.089 28.6162 38.4956 28.6651 39.0023 28.714C39.2761 28.742 39.5298 28.8708 39.7141 29.0752C39.8985 29.2797 40.0003 29.5453 40 29.8206H39.9978Z" fill="#2B2C33"/>
</g>
<defs>
<clipPath id="clip0_1067_643">
<rect width="40" height="40" fill="white"/>
</clipPath>
</defs>
</svg>
