<svg width="40" height="27" viewBox="0 0 40 27" fill="none" xmlns="http://www.w3.org/2000/svg">
<path d="M0 0H40V27H0V0Z" fill="#00008B"/>
<path d="M24.706 9.278L24.358 10.393L23.261 9.967L23.927 10.933L22.912 11.515L24.085 11.602L23.9 12.757L24.712 11.899L25.506 12.757L25.33 11.608L26.512 11.515L25.494 10.933L26.152 9.964L25.055 10.39L24.706 9.278ZM29.909 19.838L29.561 20.957L28.464 20.531L29.133 21.496L28.115 22.078L29.291 22.165L29.106 23.317L29.915 22.462L30.709 23.317L30.536 22.168L31.715 22.078L30.697 21.496L31.355 20.525L30.258 20.951L29.909 19.838ZM29.909 2.076L29.561 3.192L28.464 2.766L29.133 3.732L28.115 4.314L29.291 4.401L29.106 5.556L29.915 4.698L30.709 5.556L30.536 4.407L31.715 4.314L30.697 3.732L31.355 2.763L30.258 3.189L29.909 2.076ZM36.124 7.517L35.776 8.633L34.679 8.207L35.345 9.173L34.33 9.754L35.503 9.841L35.318 10.996L36.13 10.138L36.924 10.996L36.748 9.847L37.93 9.754L36.912 9.173L37.57 8.204L36.473 8.63L36.124 7.517ZM10.236 16.002L9.488 18.413L7.118 17.495L8.561 19.577L6.367 20.834L8.9 21.017L8.503 23.506L10.248 21.658L11.961 23.506L11.585 21.029L14.13 20.834L11.936 19.577L13.358 17.483L10.988 18.401L10.236 16.002ZM32.876 13.456H33.815L33.058 14.019L33.352 14.91L32.6 14.361L31.845 14.91L32.142 14.019L31.379 13.456H32.315L32.6 12.586L32.876 13.456ZM20 0L17.783 0.00600004L12 4L12.076 0.00600004H7.918L8 4L2.212 0.00600004L0 0V2L3 4L0 3.946V8.052L3 8L0 10V11.994H2.337L8 8V12H12V8L17.657 11.994H20V10L17 8H20V4H17L20 2V0Z" fill="white"/>
<path d="M9 0V5H0V7H9V12H11V7H20V5H11V0H9Z" fill="#EC1B23"/>
<path d="M0 0.7V0L6 4H5L0 0.7ZM0 11.997L1 12L7 8H6L0 11.997ZM20 11.2L19.994 12L14 8H15L20 11.2ZM19.994 0.00299978L19 0L13 4H14L19.994 0.00299978Z" fill="#EC1B23"/>
<g opacity="0.5">
<path d="M39 1V26H1V1H39ZM40 0H0V27H40V0Z" fill="#BABABA"/>
</g>
</svg>
