<svg width="40" height="27" viewBox="0 0 40 27" fill="none" xmlns="http://www.w3.org/2000/svg">
<path d="M0 0H40V27H0V0Z" fill="#B22234"/>
<path d="M0 0H19V15H0V0Z" fill="#3C3B6E"/>
<path d="M18 8.739H17.24L17 8L16.771 8.739H16L16.618 9.215L16.364 10L17.004 9.509L17.629 9.992L17.378 9.215L18 8.739ZM14 8.739H13.24L13 8L12.771 8.739H12L12.618 9.215L12.364 10L13.004 9.509L13.629 9.992L13.378 9.215L14 8.739ZM10 8.739H9.24L9 8L8.771 8.739H8L8.618 9.215L8.364 10L9.004 9.509L9.629 9.992L9.378 9.215L10 8.739ZM6 8.739H5.24L5 8L4.771 8.739H4L4.618 9.215L4.364 10L5.004 9.509L5.629 9.992L5.378 9.215L6 8.739ZM2 8.739H1.24L1 8L0.771 8.739H0L0.618 9.215L0.364 10L1.004 9.509L1.629 9.992L1.378 9.215L2 8.739ZM18 12.739H17.24L17 12L16.771 12.739H16L16.618 13.215L16.364 14L17.004 13.509L17.629 13.992L17.378 13.215L18 12.739ZM14 12.739H13.24L13 12L12.771 12.739H12L12.618 13.215L12.364 14L13.004 13.509L13.629 13.992L13.378 13.215L14 12.739ZM10 12.739H9.24L9 12L8.771 12.739H8L8.618 13.215L8.364 14L9.004 13.509L9.629 13.992L9.378 13.215L10 12.739ZM6 12.739H5.24L5 12L4.771 12.739H4L4.618 13.215L4.364 14L5.004 13.509L5.629 13.992L5.378 13.215L6 12.739ZM2 12.739H1.24L1 12L0.771 12.739H0L0.618 13.215L0.364 14L1.004 13.509L1.629 13.992L1.378 13.215L2 12.739ZM16 6.739H15.24L15 6L14.771 6.739H14L14.618 7.215L14.364 8L15.004 7.509L15.629 7.992L15.378 7.215L16 6.739ZM12 6.739H11.24L11 6L10.771 6.739H10L10.618 7.215L10.364 8L11.004 7.509L11.629 7.992L11.378 7.215L12 6.739ZM8 6.739H7.24L7 6L6.771 6.739H6L6.618 7.215L6.364 8L7.004 7.509L7.629 7.992L7.378 7.215L8 6.739ZM4 6.739H3.24L3 6L2.771 6.739H2L2.618 7.215L2.364 8L3.004 7.509L3.629 7.992L3.378 7.215L4 6.739ZM18 4.739H17.24L17 4L16.771 4.739H16L16.618 5.215L16.364 6L17.004 5.509L17.629 5.992L17.378 5.215L18 4.739ZM14 4.739H13.24L13 4L12.771 4.739H12L12.618 5.215L12.364 6L13.004 5.509L13.629 5.992L13.378 5.215L14 4.739ZM10 4.739H9.24L9 4L8.771 4.739H8L8.618 5.215L8.364 6L9.004 5.509L9.629 5.992L9.378 5.215L10 4.739ZM6 4.739H5.24L5 4L4.771 4.739H4L4.618 5.215L4.364 6L5.004 5.509L5.629 5.992L5.378 5.215L6 4.739ZM2 4.739H1.24L1 4L0.771 4.739H0L0.618 5.215L0.364 6L1.004 5.509L1.629 5.992L1.378 5.215L2 4.739ZM16 2.739H15.24L15 2L14.771 2.739H14L14.618 3.215L14.364 4L15.004 3.509L15.629 3.992L15.378 3.215L16 2.739ZM12 2.739H11.24L11 2L10.771 2.739H10L10.618 3.215L10.364 4L11.004 3.509L11.629 3.992L11.378 3.215L12 2.739ZM8 2.739H7.24L7 2L6.771 2.739H6L6.618 3.215L6.364 4L7.004 3.509L7.629 3.992L7.378 3.215L8 2.739ZM4 2.739H3.24L3 2L2.771 2.739H2L2.618 3.215L2.364 4L3.004 3.509L3.629 3.992L3.378 3.215L4 2.739ZM18 0.739H17.24L17 0L16.771 0.739H16L16.618 1.215L16.364 2L17.004 1.509L17.629 1.992L17.378 1.215L18 0.739ZM14 0.739H13.24L13 0L12.771 0.739H12L12.618 1.215L12.364 2L13.004 1.509L13.629 1.992L13.378 1.215L14 0.739ZM10 0.739H9.24L9 0L8.771 0.739H8L8.618 1.215L8.364 2L9.004 1.509L9.629 1.992L9.378 1.215L10 0.739ZM6 0.739H5.24L5 0L4.771 0.739H4L4.618 1.215L4.364 2L5.004 1.509L5.629 1.992L5.378 1.215L6 0.739ZM2 0.739H1.24L1 0L0.771 0.739H0L0.618 1.215L0.364 2L1.004 1.509L1.629 1.992L1.378 1.215L2 0.739ZM16 10.739H15.24L15 10L14.771 10.739H14L14.618 11.215L14.364 12L15.004 11.509L15.629 11.992L15.378 11.215L16 10.739ZM12 10.739H11.24L11 10L10.771 10.739H10L10.618 11.215L10.364 12L11.004 11.509L11.629 11.992L11.378 11.215L12 10.739ZM8 10.739H7.24L7 10L6.771 10.739H6L6.618 11.215L6.364 12L7.004 11.509L7.629 11.992L7.378 11.215L8 10.739ZM4 10.739H3.24L3 10L2.771 10.739H2L2.618 11.215L2.364 12L3.004 11.509L3.629 11.992L3.378 11.215L4 10.739ZM19 3H40V5H19V3ZM19 7H40V9H19V7ZM19 11H40V13H19V11ZM0 15H40V17H0V15ZM0 19H40V21H0V19ZM0 23H40V25H0V23Z" fill="white"/>
<g opacity="0.5">
<path d="M39 1V26H1V1H39ZM40 0H0V27H40V0Z" fill="#BABABA"/>
</g>
</svg>
