<svg width="40" height="27" viewBox="0 0 40 27" fill="none" xmlns="http://www.w3.org/2000/svg">
<path d="M0 0H40V27H0V0Z" fill="#DE2910"/>
<path d="M20.0856 13.693C15.4416 11.735 17.4986 5.70902 21.9426 6.01102C21.7485 6.09437 21.5765 6.22174 21.4401 6.38304C21.3037 6.54434 21.2067 6.73516 21.1567 6.94041C21.1068 7.14566 21.1052 7.35972 21.1523 7.56566C21.1993 7.7716 21.2936 7.96378 21.4276 8.12702C21.6495 8.59503 21.6874 9.12936 21.5336 9.62397C21.3799 10.1186 21.0458 10.5373 20.5976 10.797C20.3142 10.895 20.0622 11.067 19.8675 11.2951C19.6729 11.5233 19.5427 11.7992 19.4905 12.0945C19.4383 12.3898 19.466 12.6937 19.5706 12.9748C19.6752 13.2558 19.853 13.5038 20.0856 13.693V13.693Z" fill="white"/>
<path d="M19.8348 9.34101L19.5728 9.74801L19.4788 9.27301L19.0078 9.15301L19.4318 8.91601L19.4018 8.43201L19.7608 8.76001L20.2118 8.58101L20.0088 9.02401L20.3178 9.39601L19.8348 9.34101V9.34101Z" fill="#DE2910"/>
<path d="M20.0938 13.693C20.5267 8.68699 26.9188 8.77499 28.0018 13.08C27.8617 12.9213 27.6868 12.7972 27.4907 12.7174C27.2946 12.6377 27.0828 12.6045 26.8717 12.6205C26.6606 12.6365 26.4562 12.7012 26.2743 12.8096C26.0925 12.9179 25.9383 13.067 25.8238 13.245C25.4442 13.5993 24.9463 13.7995 24.4271 13.8066C23.9079 13.8136 23.4047 13.6269 23.0158 13.283C22.8323 13.0463 22.5896 12.8623 22.3122 12.7495C22.0347 12.6368 21.7324 12.5993 21.4359 12.641C21.1393 12.6826 20.859 12.8018 20.6234 12.9865C20.3877 13.1712 20.205 13.415 20.0938 13.693V13.693Z" fill="white"/>
<path d="M24.1702 12.11L23.6992 11.99L24.1232 11.753L24.0942 11.269L24.4532 11.597L24.9032 11.422L24.7002 11.861L25.0092 12.233L24.5262 12.178L24.2642 12.585L24.1702 12.11V12.11Z" fill="#DE2910"/>
<path d="M20.0938 13.7C25.0087 12.56 26.8938 18.644 23.1248 21C23.2324 20.8183 23.2964 20.614 23.3116 20.4033C23.3268 20.1926 23.2928 19.9812 23.2123 19.7859C23.1318 19.5906 23.007 19.4166 22.8478 19.2778C22.6885 19.139 22.4992 19.0391 22.2948 18.986C21.8395 18.7388 21.4937 18.3297 21.3259 17.8396C21.1581 17.3495 21.1806 16.8143 21.3888 16.34C21.5596 16.0937 21.6616 15.8061 21.6842 15.5072C21.7067 15.2082 21.6489 14.9087 21.5169 14.6395C21.3849 14.3703 21.1833 14.1413 20.9331 13.9762C20.6829 13.811 20.3931 13.7156 20.0938 13.7V13.7Z" fill="white"/>
<path d="M22.8644 17.072L22.8354 16.589L23.1914 16.917L23.6444 16.741L23.4414 17.181L23.7504 17.553L23.2684 17.497L23.0064 17.905L22.9114 17.43L22.4414 17.31L22.8644 17.072V17.072Z" fill="#DE2910"/>
<path d="M20.0907 13.7C22.6957 18 17.4717 21.675 14.0547 18.826C14.2608 18.8727 14.475 18.871 14.6803 18.8209C14.8857 18.7709 15.0766 18.6738 15.2381 18.5374C15.3996 18.4011 15.5272 18.2291 15.611 18.035C15.6947 17.8409 15.7323 17.6301 15.7207 17.419C15.8181 16.9092 16.1029 16.4544 16.519 16.1441C16.9351 15.8339 17.4523 15.6908 17.9687 15.743C18.2559 15.8299 18.5611 15.8387 18.8528 15.7685C19.1445 15.6983 19.4123 15.5515 19.6284 15.3434C19.8446 15.1353 20.0014 14.8733 20.0826 14.5845C20.1639 14.2956 20.1667 13.9903 20.0907 13.7V13.7Z" fill="white"/>
<path d="M17.7227 17.369L18.1758 17.19L17.9697 17.629L18.2817 18.005L17.7957 17.949L17.5368 18.356L17.4398 17.881L16.9688 17.758L17.3958 17.524L17.3668 17.04L17.7227 17.369Z" fill="#DE2910"/>
<path d="M20.0856 13.7C16.7856 17.5 11.6626 13.682 13.3226 9.56702C13.3431 9.77753 13.4121 9.98045 13.5241 10.1598C13.6362 10.3392 13.7883 10.4902 13.9685 10.601C14.1487 10.7117 14.3521 10.7792 14.5627 10.7981C14.7734 10.817 14.9856 10.7869 15.1826 10.71C15.6982 10.6422 16.2204 10.7702 16.6462 11.0686C17.072 11.367 17.3705 11.8143 17.4826 12.322C17.491 12.6214 17.5787 12.9132 17.7368 13.1676C17.8949 13.422 18.1176 13.6299 18.3823 13.77C18.647 13.9101 18.9442 13.9775 19.2434 13.9652C19.5427 13.9529 19.8333 13.8614 20.0856 13.7V13.7Z" fill="white"/>
<path d="M15.8526 12.588L16.1616 12.963L15.6786 12.905L15.4166 13.315L15.3226 12.84L14.8516 12.717L15.2756 12.483L15.2466 11.999L15.6026 12.327L16.0556 12.148L15.8526 12.588V12.588Z" fill="#DE2910"/>
<path d="M21.2987 12.06C21.6519 11.8283 22.0493 11.6723 22.4657 11.6017C22.8822 11.5312 23.3088 11.5476 23.7187 11.65L23.7477 11.539C23.3222 11.432 22.8791 11.4146 22.4465 11.4877C22.014 11.5609 21.6013 11.7231 21.2347 11.964C20.9384 12.1457 20.6811 12.3842 20.4775 12.6659C20.274 12.9476 20.1282 13.2667 20.0487 13.605C19.4747 13.2546 19.0617 12.6924 18.8987 12.04C18.7877 11.6336 18.7623 11.2086 18.8241 10.7918C18.8859 10.3751 19.0335 9.97574 19.2577 9.61901L19.1577 9.55701C18.9246 9.92693 18.7712 10.3414 18.7074 10.7739C18.6435 11.2064 18.6705 11.6475 18.7867 12.069C18.8694 12.4066 19.018 12.7246 19.224 13.0046C19.4299 13.2847 19.6891 13.5213 19.9867 13.701C19.473 14.1381 18.8084 14.3564 18.1357 14.309C17.7139 14.2898 17.3008 14.1834 16.9221 13.9967C16.5435 13.81 16.2076 13.5469 15.9357 13.224L15.8477 13.297C16.1302 13.632 16.4789 13.9049 16.872 14.0987C17.265 14.2925 17.6939 14.4029 18.1317 14.423C18.8331 14.4753 19.5266 14.2477 20.0607 13.79C20.319 14.4104 20.3216 15.1078 20.0677 15.73C19.9187 16.1246 19.6893 16.484 19.3941 16.7853C19.0988 17.0865 18.7442 17.3231 18.3527 17.48L18.3967 17.585C18.8027 17.4222 19.1705 17.1769 19.4769 16.8646C19.7832 16.5524 20.0215 16.18 20.1767 15.771C20.4417 15.1222 20.4388 14.3947 20.1687 13.748C20.8409 13.697 21.5066 13.9097 22.0247 14.341C22.3545 14.6032 22.626 14.9312 22.8221 15.3041C23.0182 15.677 23.1345 16.0867 23.1637 16.507L23.2787 16.501C23.2483 16.0646 23.1278 15.6392 22.9247 15.2518C22.7216 14.8643 22.4403 14.5232 22.0987 14.25C21.5602 13.7974 20.8648 13.5756 20.1637 13.633C20.322 12.9805 20.7294 12.416 21.2987 12.06V12.06Z" fill="#DE2910"/>
<g opacity="0.5">
<path d="M39 1V26H1V1H39ZM40 0H0V27H40V0Z" fill="#BABABA"/>
</g>
</svg>
