<svg width="40" height="27" viewBox="0 0 40 27" fill="none" xmlns="http://www.w3.org/2000/svg">
<path d="M0 0H40V27H0V0Z" fill="#009B3A"/>
<path d="M3.5 13.5L20.002 1L36.5 13.5L20.002 26L3.5 13.5Z" fill="#FEDF00"/>
<path d="M20 22C24.6944 22 28.5 18.1944 28.5 13.5C28.5 8.80558 24.6944 5 20 5C15.3056 5 11.5 8.80558 11.5 13.5C11.5 18.1944 15.3056 22 20 22Z" fill="#002776"/>
<path d="M27.9356 16.477C25.8407 14.6226 23.4401 13.1454 20.8406 12.111C17.9786 11.0708 14.9256 10.6614 11.8906 10.911C11.9906 10.659 12.2806 9.89499 12.4756 9.52099C15.4926 9.33773 18.5148 9.78314 21.3506 10.829C23.887 11.8475 26.2487 13.2558 28.3506 15.003C28.2959 15.5141 28.1556 16.0124 27.9356 16.477ZM14.8936 14.763H15.0416L14.9206 14.85L14.9696 14.991L14.8476 14.904L14.7296 14.991L14.7786 14.85L14.6576 14.763H14.8056L14.8476 14.625L14.8936 14.763ZM19.8966 15.96H20.0416L19.9236 16.05L19.9696 16.191L19.8516 16.104L19.7326 16.191L19.7816 16.05L19.6606 15.96H19.8086L19.8516 15.825L19.8966 15.96ZM20.1446 19.47H20.2936L20.1756 19.557L20.2206 19.698L20.1026 19.611L19.9846 19.698L20.0296 19.557L19.9086 19.47H20.0576L20.1026 19.332L20.1446 19.47ZM21.8516 17.652H21.9996L21.8816 17.742L21.9266 17.883L21.8086 17.796L21.6906 17.883L21.7356 17.742L21.6146 17.652H21.7636L21.8086 17.517L21.8516 17.652ZM23.0576 17.673H23.2056L23.0876 17.763L23.1326 17.904L23.0146 17.817L22.8966 17.904L22.9416 17.763L22.8236 17.673H22.9696L23.0146 17.535L23.0576 17.673ZM24.2846 19.2H24.4326L24.3146 19.29L24.3606 19.428L24.2416 19.344L24.1236 19.428L24.1696 19.29L24.0516 19.2H24.1966L24.2416 19.062L24.2846 19.2ZM24.2846 17.694H24.4326L24.3146 17.781L24.3606 17.922L24.2416 17.835L24.1236 17.922L24.1696 17.781L24.0516 17.694H24.1966L24.2416 17.556L24.2846 17.694Z" fill="white"/>
<path d="M22.1563 12.984H22.3043L22.1863 13.071L22.2313 13.212L22.1133 13.125L21.9953 13.212L22.0403 13.071L21.9223 12.984H22.0683L22.1133 12.846L22.1563 12.984ZM24.9103 17.652H25.0593L24.9403 17.742L24.9863 17.883L24.8683 17.796L24.7493 17.883L24.7953 17.742L24.6773 17.652H24.8223L24.8683 17.517L24.9103 17.652ZM26.8253 16.023H26.9743L26.8563 16.11L26.9013 16.251L26.7833 16.164L26.6653 16.251L26.7103 16.11L26.5893 16.023H26.7373L26.7833 15.885L26.8253 16.023ZM12.9893 15.897H13.1743L13.0253 16.008L13.0833 16.185L12.9343 16.077L12.7863 16.185L12.8433 16.008L12.6953 15.897H12.8803L12.9343 15.729L12.9893 15.897ZM25.8713 16.785H26.0563L25.9073 16.896L25.9653 17.073L25.8163 16.965L25.6683 17.073L25.7253 16.896L25.5773 16.785H25.7623L25.8163 16.614L25.8713 16.785ZM25.5623 17.376H25.7463L25.5983 17.487L25.6563 17.664L25.5073 17.556L25.3593 17.664L25.4193 17.487L25.2683 17.376H25.4533L25.5073 17.205L25.5623 17.376Z" fill="white"/>
<path d="M25.5592 17.424H25.7432L25.5952 17.535L25.6532 17.712L25.5042 17.604L25.3562 17.712L25.4132 17.535L25.2652 17.424H25.4492L25.5042 17.256L25.5592 17.424ZM24.3102 18.498H24.4952L24.3462 18.609L24.4042 18.786L24.2562 18.675L24.1072 18.786L24.1652 18.609L24.0162 18.498H24.2012L24.2562 18.327L24.3102 18.498ZM19.2862 15.204H19.4712L19.3222 15.315L19.3802 15.492L19.2312 15.384L19.0832 15.492L19.1402 15.315L18.9922 15.204H19.1772L19.2312 15.033L19.2862 15.204ZM17.0462 13.566H17.2772L17.0922 13.707L17.1652 13.926L16.9802 13.791L16.7922 13.926L16.8652 13.707L16.6802 13.566H16.9072L16.9802 13.353L17.0462 13.566ZM14.0712 15.177H14.3012L14.1162 15.315L14.1892 15.534L14.0042 15.399L13.8162 15.534L13.8922 15.315L13.7042 15.177H13.9342L14.0042 14.964L14.0712 15.177ZM15.7772 15.96H16.0072L15.8222 16.098L15.8952 16.317L15.7102 16.182L15.5222 16.317L15.5982 16.098L15.4102 15.96H15.6402L15.7102 15.747L15.7772 15.96ZM15.4042 16.827H15.6342L15.4462 16.965L15.5192 17.184L15.3342 17.049L15.1492 17.184L15.2222 16.965L15.0342 16.827H15.2652L15.3342 16.614L15.4042 16.827ZM17.0462 17.571H17.2772L17.0922 17.709L17.1652 17.928L16.9802 17.793L16.7922 17.928L16.8652 17.709L16.6802 17.571H16.9072L16.9802 17.355L17.0462 17.571ZM20.0652 14.373H20.2952L20.1072 14.511L20.1802 14.73L19.9952 14.595L19.8102 14.73L19.8832 14.511L19.6952 14.373H19.9252L19.9952 14.157L20.0652 14.373ZM20.9372 15.219H21.1682L20.9832 15.357L21.0562 15.576L20.8682 15.441L20.6832 15.576L20.7562 15.357L20.5682 15.219H20.7982L20.8682 15.003L20.9372 15.219ZM20.1682 16.827H20.3982L20.2132 16.965L20.2862 17.184L20.0982 17.049L19.9132 17.184L19.9862 16.965L19.7982 16.827H20.0282L20.0982 16.614L20.1682 16.827ZM22.6012 10.74H22.8342L22.6462 10.878L22.7192 11.097L22.5342 10.962L22.3492 11.097L22.4222 10.878L22.2342 10.74H22.4652L22.5342 10.527L22.6012 10.74ZM13.3192 11.88H13.5492L13.3652 12.021L13.4372 12.24L13.2492 12.105L13.0652 12.24L13.1372 12.021L12.9492 11.88H13.1802L13.2492 11.667L13.3192 11.88ZM25.7832 16.11H26.0132L25.8282 16.251L25.8982 16.47L25.7132 16.335L25.5282 16.47L25.6012 16.251L25.4132 16.11H25.6432L25.7132 15.897L25.7832 16.11Z" fill="white"/>
<g opacity="0.5">
<path d="M39 1V26H1V1H39ZM40 0H0V27H40V0Z" fill="#BABABA"/>
</g>
</svg>
