<svg width="40" height="27" viewBox="0 0 40 27" fill="none" xmlns="http://www.w3.org/2000/svg">
<path d="M0 0H40V27H0V0Z" fill="white"/>
<path d="M0 3V9H8L0 3ZM5 0H16V8.328L5 0ZM0 23V17H8L0 23ZM5 27H16V18.372L5 27ZM40 23V17H32L40 23ZM35 27H24V18.372L35 27ZM40 3V9H32L40 3ZM35 0H24V8.328L35 0Z" fill="#00247D"/>
<path d="M0 1.852V0L12.209 9H9.576L0 1.852ZM0 27H2.617L15 17H12.283L0 27ZM40 25V27L27 17H30L40 25ZM39.985 0H37.445L25.142 9H27.776L39.985 0Z" fill="#CF142B"/>
<path fill-rule="evenodd" clip-rule="evenodd" d="M40 10H23V0H17V10L0 10.2V16H17V27H23V16H40V10Z" fill="#CF142B"/>
<g opacity="0.5">
<path d="M39 1V26H1V1H39ZM40 0H0V27H40V0Z" fill="#BABABA"/>
</g>
</svg>
