<svg width="40" height="27" viewBox="0 0 40 27" fill="none" xmlns="http://www.w3.org/2000/svg">
<path d="M0 0H40V27H0V0Z" fill="#CE1126"/>
<path d="M0 0H27V27H0V0Z" fill="white"/>
<path d="M0 0H13V27H0V0Z" fill="#006847"/>
<path d="M22.2344 16.531L22.2484 16.808L22.3544 16.739L22.2734 16.511L22.2344 16.531Z" fill="#FCCA3E"/>
<path d="M22.2228 16.545C22.2725 16.545 22.3128 16.5047 22.3128 16.455C22.3128 16.4053 22.2725 16.365 22.2228 16.365C22.1731 16.365 22.1328 16.4053 22.1328 16.455C22.1328 16.5047 22.1731 16.545 22.2228 16.545Z" fill="#FCCA3E"/>
<path d="M22.5693 16.963L22.3693 16.763L22.2773 16.837L22.5553 16.997L22.5693 16.963Z" fill="#FCCA3E"/>
<path d="M22.5522 17.072C22.5405 17.0524 22.5364 17.0291 22.5408 17.0067C22.5451 16.9843 22.5575 16.9642 22.5757 16.9504C22.5939 16.9365 22.6165 16.9298 22.6393 16.9316C22.662 16.9334 22.6834 16.9435 22.6992 16.96C22.7109 16.9796 22.715 17.0028 22.7106 17.0253C22.7063 17.0477 22.6938 17.0677 22.6757 17.0816C22.6575 17.0954 22.6349 17.1021 22.6121 17.1003C22.5893 17.0985 22.568 17.0885 22.5522 17.072ZM24.1432 14.065L24.3532 14.271L24.3772 14.171L24.1852 14.043L24.1432 14.065Z" fill="#FCCA3E"/>
<path d="M24.1143 14.098C24.1624 14.098 24.2013 14.0591 24.2013 14.011C24.2013 13.963 24.1624 13.924 24.1143 13.924C24.0663 13.924 24.0273 13.963 24.0273 14.011C24.0273 14.0591 24.0663 14.098 24.1143 14.098Z" fill="#FCCA3E"/>
<path d="M24.6999 14.187L24.3789 14.278L24.4049 14.173L24.6809 14.146L24.6999 14.187Z" fill="#FCCA3E"/>
<path d="M24.7491 14.228C24.796 14.228 24.8341 14.1899 24.8341 14.143C24.8341 14.096 24.796 14.058 24.7491 14.058C24.7021 14.058 24.6641 14.096 24.6641 14.143C24.6641 14.1899 24.7021 14.228 24.7491 14.228Z" fill="#FCCA3E"/>
<path d="M23.618 15.751L23.418 15.451L23.449 15.435L23.671 15.694L23.618 15.751Z" fill="#FCCA3E"/>
<path d="M23.4064 15.47C23.4561 15.47 23.4964 15.4297 23.4964 15.38C23.4964 15.3303 23.4561 15.29 23.4064 15.29C23.3567 15.29 23.3164 15.3303 23.3164 15.38C23.3164 15.4297 23.3567 15.47 23.4064 15.47Z" fill="#FCCA3E"/>
<path d="M23.6328 15.759L23.8808 15.804L23.8898 15.771L23.6818 15.689L23.6328 15.759Z" fill="#FCCA3E"/>
<path d="M23.9572 15.897C24.0069 15.897 24.0472 15.8567 24.0472 15.807C24.0472 15.7573 24.0069 15.717 23.9572 15.717C23.9075 15.717 23.8672 15.7573 23.8672 15.807C23.8672 15.8567 23.9075 15.897 23.9572 15.897Z" fill="#FCCA3E"/>
<path d="M17.7881 16.445C17.7886 16.4635 17.7821 16.4814 17.7698 16.4952C17.7575 16.509 17.7405 16.5175 17.7221 16.519C17.6901 16.519 17.6641 16.484 17.6641 16.441C17.6641 16.398 17.6901 16.364 17.7221 16.364C17.7409 16.3674 17.758 16.3774 17.7701 16.3923C17.7822 16.4071 17.7886 16.4258 17.7881 16.445ZM17.7871 16.583L17.8431 16.893L17.7681 16.863L17.7411 16.594L17.7871 16.583Z" fill="#FCCA3E"/>
<path d="M17.8552 16.478C17.8912 16.525 17.8292 16.597 17.7642 16.615C17.6992 16.633 17.6162 16.602 17.6172 16.543C17.6182 16.484 17.7172 16.51 17.7382 16.503C17.7592 16.496 17.8152 16.428 17.8552 16.478Z" fill="#FCCA3E"/>
<path d="M17.3118 17.023C17.3654 17.023 17.4088 16.9917 17.4088 16.953C17.4088 16.9143 17.3654 16.883 17.3118 16.883C17.2583 16.883 17.2148 16.9143 17.2148 16.953C17.2148 16.9917 17.2583 17.023 17.3118 17.023Z" fill="#FCCA3E"/>
<path d="M17.4766 16.937L17.7766 16.922L17.7256 16.863L17.4786 16.889L17.4766 16.937Z" fill="#FCCA3E"/>
<path d="M17.4995 16.9C17.5245 16.975 17.5265 17.078 17.4415 17.067C17.3565 17.056 17.3725 16.981 17.3655 16.952C17.3535 16.899 17.3035 16.852 17.3545 16.8C17.4055 16.748 17.4745 16.825 17.4995 16.9Z" fill="#FCCA3E"/>
<path d="M16.5238 15.367C16.5564 15.367 16.5828 15.3271 16.5828 15.278C16.5828 15.2288 16.5564 15.189 16.5238 15.189C16.4913 15.189 16.4648 15.2288 16.4648 15.278C16.4648 15.3271 16.4913 15.367 16.5238 15.367Z" fill="#FCCA3E"/>
<path d="M16.5221 15.474L16.5291 15.762L16.4531 15.694L16.4591 15.465L16.5221 15.474Z" fill="#FCCA3E"/>
<path d="M16.6382 15.387C16.6532 15.453 16.5552 15.487 16.4882 15.478C16.4212 15.469 16.3702 15.431 16.3802 15.37C16.3902 15.309 16.4732 15.323 16.5022 15.34C16.5312 15.357 16.6162 15.293 16.6382 15.387Z" fill="#FCCA3E"/>
<path d="M16.0112 15.774C16.0669 15.774 16.1122 15.7534 16.1122 15.728C16.1122 15.7026 16.0669 15.682 16.0112 15.682C15.9554 15.682 15.9102 15.7026 15.9102 15.728C15.9102 15.7534 15.9554 15.774 16.0112 15.774Z" fill="#FCCA3E"/>
<path d="M16.1914 15.728L16.4204 15.713L16.5204 15.787L16.1914 15.775V15.728Z" fill="#FCCA3E"/>
<path d="M16.1088 15.607C16.1245 15.6095 16.1395 15.6151 16.1528 15.6236C16.1662 15.6321 16.1777 15.6433 16.1866 15.6564C16.1955 15.6695 16.2016 15.6843 16.2046 15.6999C16.2076 15.7155 16.2073 15.7315 16.2038 15.747C16.1948 15.819 16.1398 15.876 16.0828 15.868C16.0745 15.8672 16.0665 15.8646 16.0593 15.8605C16.0521 15.8564 16.0458 15.8508 16.0409 15.8441C16.036 15.8374 16.0326 15.8298 16.0308 15.8216C16.0291 15.8135 16.0291 15.8051 16.0308 15.797C16.0308 15.783 16.0648 15.757 16.0678 15.734C16.0708 15.711 16.0518 15.66 16.0588 15.634C16.0658 15.608 16.0808 15.604 16.1088 15.605V15.607ZM15.9238 13.853C15.8988 13.894 15.8498 13.924 15.8238 13.908C15.7978 13.892 15.8078 13.837 15.8328 13.797C15.8578 13.757 15.8988 13.737 15.9238 13.752C15.9488 13.767 15.9478 13.813 15.9238 13.852V13.853ZM15.6688 14.307L15.7968 14.007L15.7778 13.991L15.6328 14.2L15.6688 14.307Z" fill="#FCCA3E"/>
<path d="M15.7739 14.01C15.7109 13.964 15.6969 13.917 15.7169 13.871C15.7369 13.825 15.7849 13.855 15.7849 13.855C15.8008 13.8726 15.8189 13.8881 15.8389 13.901C15.8619 13.913 15.8979 13.901 15.9249 13.935C15.9306 13.9409 15.9349 13.9481 15.9374 13.9559C15.94 13.9637 15.9408 13.972 15.9397 13.9801C15.9387 13.9883 15.9358 13.9961 15.9313 14.003C15.9269 14.0099 15.9209 14.0157 15.9139 14.02C15.8915 14.0298 15.867 14.034 15.8426 14.0323C15.8183 14.0305 15.7947 14.0229 15.7739 14.01ZM15.2439 13.97C15.2889 13.996 15.3129 14.039 15.2979 14.07C15.2829 14.101 15.2319 14.1 15.1869 14.07C15.1419 14.04 15.1179 14.001 15.1339 13.97C15.1499 13.939 15.1979 13.94 15.2439 13.965V13.97ZM15.3759 14.1L15.6119 14.24L15.6049 14.35L15.3489 14.132L15.3759 14.1Z" fill="#FCCA3E"/>
<path d="M15.3757 14.127C15.3237 14.185 15.2757 14.194 15.2327 14.168C15.1897 14.142 15.2237 14.099 15.2237 14.099C15.2431 14.085 15.2606 14.0685 15.2757 14.05C15.2907 14.029 15.2757 13.99 15.3197 13.968C15.3263 13.9632 15.3338 13.9599 15.3417 13.9583C15.3497 13.9567 15.3579 13.9569 15.3658 13.9588C15.3737 13.9607 15.3811 13.9643 15.3875 13.9693C15.3938 13.9744 15.399 13.9807 15.4027 13.988C15.4098 14.0116 15.4111 14.0366 15.4064 14.0608C15.4017 14.085 15.3911 14.1077 15.3757 14.127Z" fill="#FCCA3E"/>
<path d="M20.5472 17.311C20.4377 17.2549 20.3204 17.2155 20.1992 17.194V17.267L20.2502 17.289L20.2002 17.276C20.2432 17.288 20.8122 17.594 20.7872 17.505C20.7622 17.416 20.7462 17.409 20.5472 17.311ZM20.5102 17.402H20.5032H20.5102Z" fill="#9CA168"/>
<path d="M24.8703 13.114C24.8583 13.064 24.8603 13.054 24.8613 13.052C24.836 13.0734 24.8156 13.1 24.8016 13.1301C24.7876 13.1601 24.7804 13.1929 24.7803 13.226C24.7603 13.0816 24.7102 12.9429 24.6333 12.819C24.4939 12.9854 24.418 13.1959 24.4193 13.413C24.4095 13.3304 24.3798 13.2514 24.3328 13.1828C24.2858 13.1142 24.2228 13.058 24.1493 13.019C24.2629 13.3532 24.3348 13.7002 24.3633 14.052C24.3708 14.164 24.3491 14.2759 24.3003 14.377C24.2933 14.377 24.2853 14.387 24.2783 14.391C24.2048 14.4384 24.1423 14.5012 24.0953 14.575C24.0913 14.5192 24.0995 14.4633 24.1193 14.411C23.4693 14.625 23.6993 15.105 23.7093 15.598C23.6715 15.6848 23.6066 15.7571 23.5243 15.804C23.5103 15.798 23.4663 15.792 23.3763 15.832C23.2793 15.8787 23.1872 15.935 23.1013 16C23.1292 15.943 23.1427 15.8801 23.1408 15.8166C23.1389 15.7532 23.1216 15.6912 23.0903 15.636C23.0333 15.897 22.8103 15.928 22.6673 16.136C22.5673 16.287 22.5893 16.536 22.4463 16.651C22.3463 16.716 22.1863 16.805 22.1583 16.933C22.1482 16.925 22.1361 16.9198 22.1233 16.918C22.0174 16.874 21.899 16.8701 21.7903 16.907C21.8501 16.8761 21.9018 16.8315 21.9413 16.777C21.3913 16.537 21.2413 17.067 20.7773 17.164C20.5883 17.156 20.4193 17.081 20.2233 17.088L20.2143 17.166V17.177C20.4655 17.1573 20.7151 17.2318 20.9143 17.386C21.4503 17.856 21.7143 17.304 22.2683 17.318C22.2295 17.2954 22.1882 17.2773 22.1453 17.264C22.0742 17.2283 21.9948 17.212 21.9153 17.217C22.0284 17.1561 22.1299 17.0759 22.2153 16.98C22.3008 16.8536 22.429 16.7624 22.5763 16.723C23.1053 16.732 23.5383 16.646 23.6483 16.084C23.5912 16.0799 23.5339 16.091 23.4823 16.116C23.5139 16.0363 23.5334 15.9524 23.5403 15.867L23.5623 15.849C23.6623 15.829 23.8223 15.582 23.9113 15.518C24.4573 15.418 24.3923 14.962 24.7113 14.618C25.0303 14.274 24.5863 14.586 24.3893 14.786C24.4081 14.6553 24.4037 14.5222 24.3763 14.393V14.355C24.3763 14.339 24.4203 14.201 24.4503 14.113C24.6023 13.881 24.9733 13.804 24.9993 13.489C25.006 13.3521 24.9598 13.2179 24.8703 13.114ZM22.2533 17.307L22.2353 17.3L22.2533 17.307ZM19.8173 17.152H19.8073L19.8153 17.093C19.6219 17.0308 19.4131 17.0364 19.2233 17.109C19.1063 17.127 19.0993 16.952 19.0073 16.945C18.9828 16.9834 18.9706 17.0284 18.9723 17.074C18.9653 17.074 18.6163 16.827 18.5423 16.804C18.4683 16.781 18.6423 17.04 18.6083 17.054C18.5933 17.06 18.2773 16.82 18.2083 16.805C18.0473 16.767 18.2563 16.97 18.2463 17.005C18.2463 17.005 17.9573 16.864 17.8753 16.905C17.7893 16.851 17.7253 16.757 17.6343 16.711C17.5793 16.663 17.4183 16.299 17.4543 16.297C17.4235 16.3399 17.3848 16.3765 17.3403 16.405C17.3983 16.439 17.2403 15.718 17.1163 15.892C17.1103 15.902 17.0833 16.145 17.0253 16.105C16.9853 16.078 17.0493 15.567 16.8943 15.648C16.8924 15.713 16.8763 15.7768 16.8473 15.835C16.8013 15.835 16.6853 15.604 16.6653 15.625C16.6604 15.6278 16.6564 15.6319 16.6535 15.6368C16.6507 15.6418 16.6493 15.6473 16.6493 15.653V15.66C16.6388 15.7083 16.6361 15.7579 16.6413 15.807C16.5226 15.7307 16.4138 15.64 16.3173 15.537C16.1823 15.377 16.4533 15.042 16.3553 14.95C16.3063 14.986 16.2553 15.019 16.2053 15.05C16.1323 14.934 16.2273 14.708 16.1323 14.564C16.0643 14.464 15.9563 14.794 15.9393 14.773C15.9223 14.752 15.9843 14.437 15.8543 14.473C15.8233 14.516 15.7943 14.559 15.7673 14.604C15.7357 14.5717 15.7076 14.5362 15.6833 14.498C15.7043 14.26 15.6303 14.033 15.6403 13.798C15.6403 13.77 15.7963 13.473 15.7943 13.469C15.7632 13.4599 15.7303 13.4579 15.6983 13.4633C15.6662 13.4686 15.6358 13.4812 15.6093 13.5C15.5783 13.508 15.8463 13.205 15.8493 13.159C15.8553 13.067 15.6553 13.215 15.6413 13.172C15.6163 13.095 15.8653 12.9 15.7413 12.823C15.6213 12.63 15.3413 13.2 15.3533 13.189C15.2943 13.235 15.2383 13.006 15.1363 13.211C15.1073 13.27 15.3083 13.473 15.2533 13.498C15.1773 13.533 15.0873 13.329 15.0123 13.464C14.9893 13.507 15.6183 14.238 15.5823 14.482V14.549C15.3523 14.571 15.6443 14.589 15.5553 14.679C15.4863 14.6689 15.4159 14.6761 15.3503 14.7C15.3273 14.821 15.7593 14.977 15.7583 14.979C15.7283 15.013 15.4693 14.859 15.4783 14.979C15.4903 15.146 15.9383 15.272 15.9443 15.246C15.8662 15.2562 15.7903 15.2788 15.7193 15.313C15.7323 15.253 16.3353 15.691 16.3443 15.698C16.4299 15.7732 16.5223 15.8401 16.6203 15.898C16.5931 15.8904 16.5647 15.8884 16.5367 15.892C16.5087 15.8956 16.4817 15.9048 16.4573 15.919C16.4443 15.947 16.8033 16.119 16.7233 16.15C16.6803 16.167 16.4733 16.063 16.4503 16.13C16.3863 16.33 16.9153 16.467 16.9383 16.44C16.9023 16.482 16.6103 16.418 16.6083 16.481C16.5983 16.854 17.0663 16.593 17.0973 16.652C17.1733 16.795 17.6173 16.778 17.8653 17.027C17.8141 17.0321 17.7649 17.0493 17.7218 17.0774C17.6786 17.1054 17.6428 17.1433 17.6173 17.188L17.5953 17.216C17.7153 17.248 17.9463 17.152 18.0733 17.216C18.1503 17.251 17.9473 17.364 17.9623 17.409C18.0363 17.628 18.3743 17.234 18.4343 17.303C18.4943 17.372 18.1463 17.616 18.4293 17.603C18.5636 17.5425 18.6874 17.4611 18.7963 17.362C18.7777 17.4405 18.7512 17.5168 18.7173 17.59C18.8113 17.724 19.1113 17.309 19.2223 17.305C19.3823 17.335 19.5013 17.053 19.6973 17.193C19.5643 17.243 19.2173 17.342 19.1663 17.493C19.1663 17.617 19.7913 17.275 19.8103 17.27L19.8023 17.259C19.8123 17.237 19.8393 17.165 19.8173 17.152Z" fill="#9CA168"/>
<path d="M19.6518 17.855C19.6248 17.8272 19.5938 17.8036 19.5598 17.785C19.5068 17.758 19.4898 17.766 19.4898 17.766L19.4648 17.757L19.5108 17.638L19.8588 17.31L19.9128 16.979H20.1248V17.43L20.1888 17.458L20.5768 17.688V17.788L20.5198 17.809C20.5028 17.8143 20.4872 17.8232 20.4738 17.835L20.3268 17.848L20.0718 17.665L19.9658 17.555L19.7738 17.799L19.6538 17.856L19.6518 17.855Z" fill="white"/>
<path d="M19.9251 16.979C19.9196 17.0012 19.9169 17.0241 19.9171 17.047C19.9171 17.098 19.9171 17.364 19.9071 17.401C19.8971 17.438 19.7071 17.513 19.6001 17.606C19.4931 17.699 19.4891 17.766 19.4891 17.766C19.4548 17.7712 19.4213 17.7802 19.3891 17.793C19.3509 17.804 19.3163 17.8251 19.2891 17.854C19.3281 17.7305 19.4016 17.6209 19.5011 17.538C19.5869 17.4659 19.6793 17.4019 19.7771 17.347C19.7845 17.2338 19.7845 17.1202 19.7771 17.007C19.7771 16.984 19.8021 16.981 19.8161 16.979C19.8301 16.977 19.9161 16.979 19.9161 16.979H19.9251ZM20.3661 17.952C20.3785 17.9268 20.3936 17.903 20.4111 17.881C20.4298 17.8642 20.4495 17.8485 20.4701 17.834C20.4701 17.834 20.4771 17.827 20.3821 17.786C20.2871 17.745 20.2391 17.759 20.1711 17.712C20.1217 17.6738 20.0765 17.6305 20.0361 17.583L19.9461 17.663C19.9778 17.7073 20.0129 17.7491 20.0511 17.788C20.1021 17.837 20.2191 17.853 20.2701 17.881C20.306 17.9008 20.3395 17.9246 20.3701 17.952H20.3661Z" fill="#016848"/>
<path d="M20.1006 16.977C20.1006 16.977 20.2006 16.971 20.2176 16.987C20.2264 16.9977 20.231 17.0112 20.2306 17.025C20.234 17.1335 20.2297 17.2421 20.2176 17.35C20.2028 17.4192 20.1731 17.4844 20.1306 17.541C20.1066 17.565 19.9526 17.698 19.8796 17.769C19.8263 17.8225 19.7769 17.8796 19.7316 17.94C19.7316 17.94 19.7046 17.91 19.6816 17.881C19.6586 17.852 19.6356 17.843 19.6416 17.824C19.6921 17.7378 19.7624 17.6648 19.8466 17.611C19.9066 17.5809 19.9596 17.5387 20.0025 17.4871C20.0453 17.4354 20.077 17.3755 20.0956 17.311C20.1071 17.2003 20.1071 17.0887 20.0956 16.978L20.1006 16.977Z" fill="#CD202A"/>
<path d="M20.7814 17.8C20.7814 17.8 20.7564 17.776 20.6704 17.774C20.5844 17.772 20.5764 17.786 20.5764 17.786C20.5403 17.7437 20.4982 17.707 20.4514 17.677C20.3754 17.627 20.3174 17.635 20.2344 17.577C20.1836 17.5426 20.1409 17.4976 20.1094 17.445L20.1724 17.317C20.2137 17.374 20.2624 17.4251 20.3174 17.469C20.3904 17.523 20.5544 17.575 20.6064 17.621C20.6584 17.667 20.7814 17.796 20.7814 17.796V17.8Z" fill="#CD202A"/>
<path d="M21.5565 16.34C21.5565 16.34 21.3325 16.254 21.3495 16.177C21.3665 16.1 21.8645 15.969 21.8645 15.969L21.8725 15.839C21.8043 15.84 21.7367 15.8521 21.6725 15.875C21.4987 15.934 21.3169 15.9657 21.1335 15.969C21.0538 15.9718 20.9741 15.9637 20.8965 15.945C20.8735 15.938 19.1375 15.837 19.0805 15.838H18.9855C18.7545 15.821 18.6055 15.471 18.6055 15.471L18.4965 15.49C18.4965 15.49 18.5295 15.662 18.4715 15.677C18.169 15.5877 17.8778 15.4639 17.6035 15.308L17.5625 15.47C17.5625 15.47 18.0235 15.714 18.0095 15.805C17.9955 15.896 17.8585 15.889 17.8585 15.889L17.9175 15.998C17.9385 15.998 18.6765 16.035 18.6895 16.254C18.6895 16.343 18.5085 16.396 18.5085 16.396L18.5705 16.471V16.508C18.7473 16.5053 18.9237 16.5272 19.0945 16.573C19.2075 16.636 19.2655 16.727 19.4055 16.806C19.8127 16.8724 20.2274 16.8788 20.6365 16.825C20.8025 16.778 20.9055 16.591 21.1765 16.51C21.293 16.4694 21.4133 16.4406 21.5355 16.424L21.5565 16.34Z" fill="#30C2DC"/>
<path d="M17.7784 16.119C17.8502 16.119 17.9084 16.0608 17.9084 15.989C17.9084 15.9172 17.8502 15.859 17.7784 15.859C17.7066 15.859 17.6484 15.9172 17.6484 15.989C17.6484 16.0608 17.7066 16.119 17.7784 16.119Z" fill="white" stroke="#0872A7" stroke-width="0.064"/>
<path d="M18.5245 15.517C18.5963 15.517 18.6545 15.4588 18.6545 15.387C18.6545 15.3152 18.5963 15.257 18.5245 15.257C18.4527 15.257 18.3945 15.3152 18.3945 15.387C18.3945 15.4588 18.4527 15.517 18.5245 15.517Z" fill="white" stroke="#0872A7" stroke-width="0.064"/>
<path d="M21.6564 16.485C21.7299 16.485 21.7894 16.4254 21.7894 16.352C21.7894 16.2785 21.7299 16.219 21.6564 16.219C21.583 16.219 21.5234 16.2785 21.5234 16.352C21.5234 16.4254 21.583 16.485 21.6564 16.485Z" fill="white" stroke="#0872A7" stroke-width="0.064"/>
<path d="M17.1983 15.193C17.1553 15.293 17.3233 15.476 17.4413 15.493C17.5593 15.51 17.6243 15.485 17.6413 15.428C17.6497 15.4022 17.6522 15.3748 17.6484 15.348C17.6445 15.3211 17.6346 15.2954 17.6193 15.273C17.5443 15.173 17.2373 15.092 17.1953 15.19L17.1983 15.193Z" fill="#F8C83C"/>
<path d="M17.5663 15.342C17.5663 15.283 17.4663 15.226 17.4013 15.226C17.3363 15.226 17.2763 15.226 17.2863 15.256C17.2963 15.286 17.4583 15.332 17.4623 15.35C17.4663 15.368 17.4143 15.391 17.4403 15.415C17.4663 15.439 17.4993 15.421 17.5253 15.403C17.5513 15.385 17.5683 15.378 17.5663 15.342Z" fill="white"/>
<path d="M18.6028 16.458C18.6298 16.544 18.5628 16.586 18.4748 16.625C18.4239 16.6449 18.3684 16.6505 18.3145 16.6412C18.2605 16.6318 18.2102 16.6079 18.1688 16.572C18.1288 16.503 18.2338 16.391 18.3418 16.364C18.4498 16.337 18.5788 16.381 18.6028 16.458Z" fill="#F8C83C"/>
<path d="M18.4243 16.509C18.4583 16.503 18.4583 16.56 18.4893 16.556C18.5061 16.5496 18.5201 16.5374 18.5289 16.5217C18.5376 16.506 18.5406 16.4877 18.5373 16.47C18.5274 16.4484 18.5115 16.43 18.4915 16.417C18.4715 16.4041 18.4482 16.3972 18.4243 16.397C18.3753 16.397 18.2313 16.521 18.2473 16.554C18.2633 16.587 18.2963 16.582 18.3223 16.57C18.3483 16.558 18.3873 16.515 18.4223 16.509H18.4243Z" fill="white"/>
<path d="M21.825 16.012C21.904 16.112 22.047 16.02 22.085 15.98C22.123 15.94 22.239 15.872 22.192 15.804C22.1693 15.779 22.1405 15.7603 22.1084 15.75C22.0763 15.7396 22.042 15.7379 22.009 15.745C21.9363 15.7629 21.8715 15.8044 21.825 15.863C21.8117 15.8856 21.8047 15.9113 21.8047 15.9375C21.8047 15.9637 21.8117 15.9895 21.825 16.012Z" fill="#F8C83C"/>
<path d="M21.8516 15.943C21.8529 15.9128 21.8653 15.8842 21.8863 15.8625C21.9072 15.8407 21.9354 15.8274 21.9656 15.825C22.0256 15.825 22.0286 15.841 22.0746 15.867C22.1206 15.893 22.1386 15.833 22.1386 15.833C22.1386 15.833 22.1386 15.914 22.0666 15.916C21.9946 15.918 22.0196 15.884 21.9466 15.873C21.8736 15.862 21.8516 15.943 21.8516 15.943Z" fill="white"/>
<path d="M20.1159 15.723L20.0629 15.689H19.8859L19.6719 15.697L19.8839 16.307L20.1389 16.67L20.2389 16.704L20.4389 16.691L20.4719 16.591L20.3929 16L20.1159 15.719V15.723Z" fill="#F9AA51" stroke="#953220" stroke-width="0.033" stroke-linecap="round" stroke-linejoin="round"/>
<path d="M19.4151 15.761L19.4251 15.692C19.4251 15.692 19.4731 15.686 19.5401 15.684C19.5843 15.6808 19.6287 15.6838 19.6721 15.693C19.7499 15.7807 19.8171 15.8774 19.8721 15.981C19.9211 16.093 19.9781 16.281 20.0401 16.395C20.1021 16.509 20.2401 16.701 20.2401 16.701H19.9861L19.8721 16.657L19.5141 16.106L19.4141 15.755L19.4151 15.761Z" fill="#F9AA51" stroke="#953220" stroke-width="0.033" stroke-linecap="round" stroke-linejoin="round"/>
<path d="M19.2649 15.686C19.3183 15.6843 19.3718 15.6863 19.4249 15.692C19.5297 15.7805 19.6119 15.8926 19.6649 16.019C19.6959 16.149 19.7349 16.2769 19.7819 16.402C19.8336 16.5113 19.901 16.6123 19.9819 16.702C19.8548 16.7128 19.7269 16.7121 19.5999 16.7C19.4619 16.676 19.4129 16.679 19.3799 16.641C19.3475 16.6088 19.3112 16.5805 19.2719 16.557H19.1339L19.1669 16.366L19.1289 15.94L19.1369 15.72L19.2639 15.691L19.2649 15.686ZM20.7259 15.8L20.4929 15.705L20.0599 15.683C20.0599 15.683 20.0759 15.797 20.0929 15.903C20.1248 16.069 20.1793 16.2299 20.2549 16.381C20.307 16.4876 20.3668 16.5902 20.4339 16.688C20.4719 16.724 20.7199 16.622 20.7199 16.622L20.8829 16.597L20.8609 16.422L20.8379 16.368L20.8759 15.868L20.8409 15.791L20.7259 15.799V15.8Z" fill="#F9AA51" stroke="#953220" stroke-width="0.033" stroke-linecap="round" stroke-linejoin="round"/>
<path d="M19.201 15.8C19.201 15.854 19.259 15.857 19.274 15.854C19.2955 15.8488 19.3142 15.8355 19.3263 15.8169C19.3384 15.7983 19.3429 15.7758 19.339 15.754C19.3395 15.7359 19.3364 15.7179 19.3297 15.7011C19.323 15.6843 19.3129 15.669 19.3 15.6562C19.2872 15.6435 19.2718 15.6335 19.255 15.6269C19.2381 15.6204 19.2201 15.6173 19.202 15.618C19.111 15.618 19.043 15.726 19.043 15.802C19.043 15.878 19.12 15.917 19.12 15.946C19.0953 15.9717 19.0761 16.0022 19.0636 16.0355C19.051 16.0689 19.0454 16.1044 19.047 16.14C19.0555 16.223 19.0927 16.3004 19.152 16.359C19.152 16.359 19.044 16.444 19.044 16.53C19.047 16.5698 19.0654 16.6068 19.0953 16.6333C19.1251 16.6598 19.1641 16.6737 19.204 16.672C19.281 16.672 19.379 16.623 19.379 16.558C19.3772 16.5309 19.3651 16.5054 19.3453 16.4868C19.3254 16.4683 19.2992 16.458 19.272 16.458C19.224 16.458 19.204 16.486 19.204 16.508L19.201 15.8ZM20.801 15.836C20.801 15.889 20.766 15.891 20.736 15.891C20.706 15.891 20.665 15.875 20.665 15.808C20.665 15.741 20.754 15.708 20.811 15.708C20.8521 15.7151 20.8897 15.7358 20.9176 15.7668C20.9455 15.7979 20.9622 15.8374 20.965 15.879C20.9629 15.9382 20.9382 15.9944 20.896 16.036C20.896 16.036 20.939 16.056 20.939 16.174C20.9361 16.2474 20.909 16.3177 20.862 16.374C20.8927 16.388 20.9185 16.4107 20.9363 16.4394C20.9541 16.468 20.963 16.5013 20.962 16.535C20.9642 16.5553 20.9622 16.5759 20.956 16.5953C20.9498 16.6148 20.9395 16.6327 20.926 16.648C20.9124 16.6633 20.8958 16.6755 20.8772 16.684C20.8586 16.6924 20.8384 16.6969 20.818 16.697C20.759 16.697 20.657 16.662 20.657 16.579C20.657 16.496 20.71 16.466 20.75 16.466C20.7723 16.4692 20.7928 16.4803 20.8075 16.4975C20.8222 16.5146 20.8302 16.5364 20.83 16.559" fill="#F9AA51"/>
<path d="M20.801 15.836C20.801 15.889 20.766 15.891 20.736 15.891C20.706 15.891 20.665 15.875 20.665 15.808C20.665 15.741 20.754 15.708 20.811 15.708C20.8521 15.7151 20.8897 15.7358 20.9176 15.7668C20.9455 15.7979 20.9622 15.8374 20.965 15.879C20.9629 15.9382 20.9382 15.9944 20.896 16.036C20.896 16.036 20.939 16.056 20.939 16.174C20.9361 16.2474 20.909 16.3177 20.862 16.374C20.8927 16.388 20.9185 16.4107 20.9363 16.4394C20.9541 16.468 20.963 16.5013 20.962 16.535C20.9642 16.5553 20.9622 16.5759 20.956 16.5953C20.9498 16.6148 20.9395 16.6327 20.926 16.648C20.9124 16.6633 20.8958 16.6755 20.8772 16.684C20.8586 16.6924 20.8384 16.6969 20.818 16.697C20.759 16.697 20.657 16.662 20.657 16.579C20.657 16.496 20.71 16.466 20.75 16.466C20.7723 16.4692 20.7928 16.4803 20.8075 16.4975C20.8222 16.5146 20.8302 16.5364 20.83 16.559M19.201 15.8C19.201 15.854 19.259 15.857 19.274 15.854C19.2955 15.8488 19.3142 15.8355 19.3263 15.8169C19.3384 15.7983 19.3429 15.7758 19.339 15.754C19.3395 15.7359 19.3364 15.7179 19.3297 15.7011C19.323 15.6843 19.3129 15.669 19.3 15.6562C19.2872 15.6435 19.2718 15.6335 19.255 15.6269C19.2381 15.6204 19.2201 15.6173 19.202 15.618C19.111 15.618 19.043 15.726 19.043 15.802C19.043 15.878 19.12 15.917 19.12 15.946C19.0953 15.9717 19.0761 16.0022 19.0636 16.0355C19.051 16.0689 19.0454 16.1044 19.047 16.14C19.0555 16.223 19.0927 16.3004 19.152 16.359C19.152 16.359 19.044 16.444 19.044 16.53C19.047 16.5698 19.0654 16.6068 19.0953 16.6333C19.1251 16.6598 19.1641 16.6737 19.204 16.672C19.281 16.672 19.379 16.623 19.379 16.558C19.3772 16.5309 19.3651 16.5054 19.3453 16.4868C19.3254 16.4683 19.2992 16.458 19.272 16.458C19.224 16.458 19.204 16.486 19.204 16.508L19.201 15.8Z" stroke="#953220" stroke-width="0.033" stroke-linecap="round" stroke-linejoin="round"/>
<path d="M19.3438 16.482C19.3552 16.4909 19.3641 16.5026 19.3698 16.516C19.3793 16.5476 19.3953 16.5769 19.4167 16.602C19.6049 16.6493 19.7988 16.6698 19.9928 16.663C20.1784 16.6767 20.365 16.6687 20.5487 16.639C20.6177 16.598 20.6257 16.531 20.6677 16.5C20.7097 16.469 20.7227 16.472 20.7227 16.472L20.6698 16.517V16.602L20.7008 16.649C20.7008 16.649 20.6937 16.674 20.6507 16.7C20.6084 16.7255 20.5602 16.7396 20.5107 16.741C20.4517 16.747 19.6837 16.741 19.5597 16.725C19.4357 16.709 19.4438 16.706 19.4078 16.68C19.3862 16.6645 19.367 16.646 19.3507 16.625L19.3668 16.57L19.3468 16.482H19.3438ZM20.5907 15.752L20.6597 15.782C20.6597 15.782 20.6007 15.8 20.5597 15.92C20.5187 16.04 20.5508 16.079 20.5208 16.091C20.3998 16.0974 20.2787 16.0974 20.1578 16.091L20.1007 15.955L20.5938 15.75L20.5907 15.752Z" fill="#953220"/>
<path d="M22.6591 15.345L22.6881 15.31V15.182C22.6856 15.1156 22.6711 15.0502 22.6451 14.989C22.2941 14.389 21.9011 15.253 21.4981 15.231C21.5377 15.1325 21.5377 15.0225 21.4981 14.924C21.4371 14.84 21.3548 14.7738 21.2597 14.7322C21.1647 14.6905 21.0602 14.6749 20.9571 14.687L20.6411 14.86L20.6061 14.881L20.4061 14.927C20.4061 14.927 20.3841 14.937 20.3561 14.953L20.5311 14.7C19.9911 14.776 19.7311 14.464 19.2121 14.453C19.1266 14.4629 19.0449 14.4945 18.975 14.5447C18.905 14.5949 18.8489 14.6621 18.8121 14.74C18.7773 14.6986 18.7403 14.6592 18.7011 14.622L18.6951 14.616L18.6821 14.605C18.6524 14.5779 18.6213 14.5522 18.5891 14.528L18.5311 14.48L18.5071 14.469C18.3904 14.3715 18.2435 14.3175 18.0914 14.3162C17.9393 14.3149 17.7915 14.3664 17.6731 14.462C17.6731 14.44 17.6731 14.408 17.6651 14.38V14.35L17.6601 14.332L17.6371 14.247L17.6001 14.135L17.5941 14.125C17.5761 14.088 17.5461 14.048 17.5241 14.012L17.4371 13.912C17.3237 13.7877 17.1661 13.713 16.9981 13.704H16.9741L16.9261 13.72C16.8714 13.7337 16.8221 13.7637 16.7848 13.806C16.7475 13.8484 16.7239 13.901 16.7171 13.957L16.7031 13.994V14.062L16.7101 14.15L16.7161 14.182L16.7501 14.275L16.8581 14.431L16.9951 14.547L17.1671 14.635L17.2901 14.671L17.4511 14.698H17.5431L17.5491 14.691H17.5541C17.5497 14.7094 17.5467 14.7281 17.5451 14.747L17.5761 14.824C17.5961 14.857 17.6251 14.888 17.6481 14.924L17.6801 14.94C17.8213 15.0322 17.9831 15.0882 18.1511 15.103H18.1901C18.2229 15.1108 18.2567 15.1128 18.2901 15.109H18.3821C18.4408 15.1059 18.4989 15.0958 18.5551 15.079H18.5611C18.6104 15.0644 18.6573 15.0425 18.7001 15.014C18.7082 15.0097 18.7156 15.0043 18.7221 14.998C18.7621 15.547 19.7881 15.54 20.0771 15.273C20.0216 15.504 20.0074 15.743 20.0351 15.979C20.0531 16.019 20.0781 16.038 20.1111 16.036C20.4671 16.055 20.3611 15.982 20.5511 15.852C20.5921 15.824 20.6801 15.659 20.7361 15.611C20.8771 15.492 21.1211 15.53 21.2821 15.447L21.3381 15.471C21.3901 15.496 21.4591 15.525 21.5381 15.554L21.5521 15.559H21.5621C21.6191 15.5789 21.6772 15.5956 21.7361 15.609L21.7991 15.628L21.9531 15.638L22.0871 15.621L22.1461 15.602C22.1979 15.5889 22.2487 15.5722 22.2981 15.552L22.3351 15.54L22.3731 15.521C22.4091 15.503 22.4411 15.488 22.4731 15.47L22.5441 15.434L22.5831 15.404L22.6591 15.345Z" fill="#0C8489"/>
<path d="M18.5394 14.4037C18.5621 14.2585 18.5013 14.1285 18.4037 14.1132C18.306 14.0979 18.2084 14.2031 18.1857 14.3483C18.163 14.4934 18.2237 14.6235 18.3214 14.6388C18.419 14.6541 18.5166 14.5488 18.5394 14.4037Z" fill="#F79AA8"/>
<path d="M18.4625 13.9L18.3555 14.164L18.4425 14.152L18.4935 13.92L18.4625 13.9Z" fill="#FCCA3E"/>
<path d="M18.5117 13.788C18.4925 13.7856 18.4731 13.7909 18.4578 13.8028C18.4426 13.8148 18.4326 13.8322 18.4302 13.8515C18.4279 13.8707 18.4332 13.8901 18.4451 13.9054C18.457 13.9207 18.4745 13.9306 18.4937 13.933C18.513 13.9354 18.5324 13.93 18.5476 13.9181C18.5629 13.9062 18.5729 13.8887 18.5752 13.8695C18.5776 13.8502 18.5723 13.8309 18.5604 13.8156C18.5485 13.8003 18.531 13.7904 18.5117 13.788ZM23.1077 14.448L22.8447 14.692L22.9527 14.719L23.1337 14.484L23.1077 14.448Z" fill="#FCCA3E"/>
<path d="M23.2258 14.347C23.2042 14.337 23.1797 14.335 23.1568 14.3414C23.1339 14.3478 23.114 14.3622 23.1008 14.382C23.0943 14.3914 23.0899 14.4021 23.0879 14.4133C23.0858 14.4245 23.0861 14.436 23.0887 14.4472C23.0913 14.4583 23.0963 14.4687 23.1032 14.4778C23.1101 14.4869 23.1188 14.4944 23.1288 14.5C23.1504 14.51 23.1748 14.5119 23.1977 14.5055C23.2206 14.4991 23.2405 14.4847 23.2538 14.465C23.2601 14.4555 23.2643 14.4448 23.2663 14.4336C23.2683 14.4224 23.268 14.4109 23.2654 14.3999C23.2628 14.3888 23.2579 14.3784 23.2511 14.3693C23.2443 14.3602 23.2357 14.3526 23.2258 14.347ZM16.4258 13.038L16.5648 13.338L16.6238 13.254L16.4668 13.025L16.4258 13.038Z" fill="#FCCA3E"/>
<path d="M16.3679 12.906C16.3515 12.9208 16.3415 12.9413 16.34 12.9634C16.3385 12.9854 16.3457 13.0071 16.3599 13.024C16.3666 13.0327 16.3749 13.0401 16.3845 13.0455C16.394 13.051 16.4045 13.0545 16.4155 13.0558C16.4264 13.0571 16.4374 13.0562 16.448 13.0531C16.4586 13.0501 16.4684 13.0449 16.4769 13.038C16.492 13.0228 16.5009 13.0026 16.5019 12.9813C16.5029 12.96 16.4959 12.939 16.4823 12.9225C16.4687 12.9061 16.4495 12.8952 16.4283 12.8922C16.4072 12.8891 16.3856 12.894 16.3679 12.906Z" fill="#FCCA3E"/>
<path d="M16.8714 13.8643C16.9663 13.8144 16.9836 13.6607 16.9101 13.5209C16.8366 13.381 16.7002 13.3081 16.6053 13.3579C16.5105 13.4078 16.4932 13.5615 16.5666 13.7014C16.6401 13.8412 16.7766 13.9141 16.8714 13.8643Z" fill="#F79AA8"/>
<path d="M16.4129 13.547C16.443 13.5555 16.4749 13.5555 16.5049 13.547C16.5369 13.531 16.5429 13.506 16.5509 13.499C16.5616 13.4816 16.5662 13.4612 16.5639 13.441C16.5516 13.407 16.5314 13.3765 16.5049 13.352C16.4909 13.346 16.4449 13.352 16.4369 13.344C16.4289 13.336 16.4439 13.318 16.4259 13.314C16.4079 13.31 16.3179 13.414 16.3339 13.428C16.3499 13.442 16.3599 13.42 16.3649 13.428C16.368 13.4505 16.368 13.4734 16.3649 13.496C16.3649 13.512 16.4109 13.545 16.4109 13.545L16.4129 13.547Z" fill="#E92736"/>
<path d="M16.5013 13.3569C16.5152 13.3811 16.5335 13.4025 16.5553 13.4199C16.5777 13.4254 16.601 13.4254 16.6233 13.4199C16.6363 13.4139 16.6803 13.3739 16.6813 13.3559C16.6831 13.3392 16.6804 13.3223 16.6733 13.3069C16.6653 13.2889 16.6733 13.2419 16.6533 13.2389C16.6416 13.2385 16.6304 13.2335 16.6223 13.2249C16.6143 13.2149 16.6273 13.1979 16.6153 13.1809C16.6033 13.1639 16.4583 13.2469 16.4693 13.2639C16.4803 13.2809 16.4943 13.2639 16.5003 13.2729C16.5063 13.2819 16.4933 13.3379 16.5003 13.3549L16.5013 13.3569Z" fill="#E92736"/>
<path d="M16.8271 13.32C16.8359 13.2843 16.8327 13.2467 16.8181 13.213C16.8031 13.198 16.7781 13.197 16.7771 13.187C16.7761 13.177 16.7951 13.174 16.7951 13.157C16.7951 13.14 16.6341 13.163 16.6451 13.181C16.6561 13.199 16.6831 13.189 16.6811 13.199C16.6791 13.209 16.6541 13.224 16.6511 13.237C16.6518 13.261 16.6569 13.2847 16.6661 13.307C16.6731 13.318 16.6661 13.331 16.6821 13.338L16.7161 13.35C16.7457 13.3568 16.7765 13.3568 16.8061 13.35C16.8141 13.343 16.8191 13.35 16.8271 13.324V13.32ZM18.2001 14.116C18.2136 14.1392 18.2329 14.1585 18.2561 14.172C18.2747 14.1775 18.2945 14.1775 18.3131 14.172C18.33 14.1692 18.3453 14.1603 18.3561 14.147C18.3703 14.1195 18.3775 14.0889 18.3771 14.058C18.3771 14.046 18.3421 14.02 18.3431 14.011C18.3441 14.002 18.3621 14 18.3551 13.986C18.3481 13.972 18.2311 13.976 18.2301 13.995C18.2291 14.014 18.2501 14.007 18.2451 14.018C18.2401 14.029 18.2141 14.049 18.2041 14.059C18.1941 14.069 18.2041 14.116 18.2041 14.116H18.2001Z" fill="#E92736"/>
<path d="M18.3642 14.059C18.3567 14.0822 18.354 14.1067 18.3562 14.131C18.3653 14.1484 18.3788 14.1632 18.3952 14.174C18.4191 14.1809 18.4444 14.1809 18.4682 14.174C18.4801 14.1654 18.4891 14.1536 18.4942 14.14C18.5002 14.125 18.5322 14.1 18.5242 14.088C18.5179 14.0801 18.5147 14.0701 18.5152 14.06C18.5152 14.049 18.5342 14.048 18.5382 14.03C18.5422 14.012 18.4052 13.971 18.4012 13.987C18.3972 14.003 18.4172 14.002 18.4132 14.012C18.4092 14.022 18.3692 14.046 18.3642 14.06V14.059Z" fill="#E92736"/>
<path d="M18.5797 14.2429C18.5977 14.2349 18.6407 14.1919 18.6407 14.1739C18.6407 14.1559 18.6277 14.1399 18.6327 14.1339C18.6377 14.1279 18.6517 14.1339 18.6617 14.1269C18.6717 14.1199 18.5617 14.0269 18.5617 14.0469C18.5617 14.0669 18.5787 14.0749 18.5717 14.0809C18.5647 14.0869 18.5407 14.0809 18.5307 14.0809C18.5161 14.0953 18.5042 14.1123 18.4957 14.1309C18.4957 14.1419 18.4797 14.1439 18.4857 14.1599C18.4917 14.1759 18.4917 14.1739 18.4987 14.1879C18.5128 14.2092 18.5312 14.2273 18.5527 14.2409C18.5571 14.2435 18.5621 14.2448 18.5672 14.2448C18.5723 14.2448 18.5773 14.2435 18.5817 14.2409L18.5797 14.2429ZM22.7107 14.5849C22.7114 14.6107 22.7187 14.6358 22.7317 14.6579C22.7452 14.6714 22.7622 14.6808 22.7807 14.6849C22.796 14.6899 22.8124 14.6899 22.8277 14.6849C22.8513 14.6674 22.8708 14.6449 22.8847 14.6189C22.8847 14.6069 22.8717 14.5709 22.8767 14.5629C22.8817 14.5549 22.8977 14.5629 22.8967 14.5489C22.8957 14.5349 22.7967 14.4819 22.7887 14.4979C22.7807 14.5139 22.8007 14.5169 22.7887 14.5239C22.7721 14.5312 22.7546 14.5362 22.7367 14.5389C22.7237 14.5389 22.7087 14.5859 22.7087 14.5859L22.7107 14.5849Z" fill="#E92736"/>
<path d="M22.8713 14.618C22.8536 14.631 22.839 14.6477 22.8283 14.667C22.8272 14.6841 22.8303 14.7013 22.8373 14.717C22.8532 14.7335 22.8738 14.7447 22.8963 14.749C22.9097 14.7476 22.9224 14.7428 22.9333 14.735C22.9463 14.727 22.9843 14.723 22.9843 14.71C22.9836 14.7056 22.9838 14.701 22.985 14.6967C22.9862 14.6924 22.9884 14.6884 22.9913 14.685C22.9973 14.678 23.0123 14.685 23.0243 14.673C23.0363 14.661 22.9493 14.573 22.9383 14.58C22.9273 14.587 22.9383 14.598 22.9383 14.604C22.9383 14.61 22.8853 14.609 22.8743 14.618H22.8713Z" fill="#E92736"/>
<path d="M22.9002 14.848C22.9286 14.8566 22.9588 14.8566 22.9872 14.848C22.9992 14.838 23.0012 14.82 23.0082 14.819C23.0152 14.818 23.0192 14.832 23.0322 14.833C23.0452 14.834 23.0322 14.713 23.0182 14.72C23.0042 14.727 23.0102 14.748 23.0012 14.747C22.9922 14.746 22.9822 14.726 22.9712 14.724C22.9522 14.7239 22.9332 14.7269 22.9152 14.733C22.9062 14.733 22.8962 14.733 22.8902 14.745L22.8792 14.77C22.8736 14.7916 22.8736 14.8143 22.8792 14.836C22.8842 14.842 22.8792 14.846 22.8992 14.853L22.9002 14.848Z" fill="#E92736"/>
<path d="M22.7948 14.9868C22.9095 14.8847 22.9611 14.7555 22.9101 14.6981C22.8591 14.6408 22.7247 14.677 22.61 14.7791C22.4953 14.8812 22.4437 15.0104 22.4948 15.0678C22.5458 15.1251 22.6801 15.0889 22.7948 14.9868Z" fill="#F79AA8"/>
<path d="M18.0002 13.445L17.9472 13.423C17.7392 13.544 17.5472 12.933 17.4372 12.845C17.3642 12.7873 17.2992 12.7201 17.2442 12.645C17.1992 12.528 17.2622 12.426 17.3002 12.312C17.3146 12.2773 17.323 12.2405 17.3252 12.203C17.3308 12.0961 17.2996 11.9904 17.2369 11.9037C17.1741 11.8169 17.0835 11.7542 16.9802 11.726C17.0052 11.493 16.8212 11.726 16.8192 11.726L16.8292 11.677C16.8092 11.636 16.7452 11.584 16.7032 11.646C16.3752 11.546 16.4682 11.963 16.6432 11.906C16.6532 11.962 16.7242 11.955 16.7682 11.933L16.7782 11.896C16.7842 11.966 16.8642 12.061 16.9182 11.959C16.9737 11.987 17.0179 12.0333 17.0432 12.09V12.112C17.0552 12.312 16.8762 12.5 16.9222 12.712C16.9279 12.7959 16.9664 12.8742 17.0292 12.93C17.2642 13.187 17.3012 13.501 17.5082 13.73V13.737L17.5252 13.746C17.5571 13.7793 17.5959 13.8051 17.639 13.8215C17.6821 13.838 17.7283 13.8446 17.7742 13.841C17.8427 13.8404 17.9105 13.8272 17.9742 13.802C18.0154 13.7866 18.0549 13.7672 18.0922 13.744L18.0822 13.73L18.0902 13.719C18.109 13.6958 18.1242 13.6698 18.1352 13.642L18.0002 13.445ZM17.8382 9.93402L17.7652 9.99402C17.7885 10.0284 17.8032 10.0678 17.8083 10.109C17.8133 10.1502 17.8085 10.192 17.7942 10.231C17.9002 10.206 17.8382 9.93402 17.8382 9.93402Z" fill="#A8AC71"/>
<path d="M18.9479 13.355L18.8739 13.198L18.8869 13.09H18.8809V12.979L18.8669 12.879L18.8339 12.779L18.7819 12.694L18.7299 12.649L18.6799 12.607L18.5849 12.578L18.4949 12.565L18.3259 12.579L18.1439 12.601L18.0699 12.6L17.9359 12.533L17.8479 12.387L17.8369 12.216L17.8749 12.116L17.9279 12.04L17.9109 12.049L17.9439 12.013C17.9439 12.007 17.9569 12.001 17.9569 12.001L18.0769 11.88L18.1059 11.856V11.849C18.1609 11.803 18.2159 11.759 18.2719 11.715L18.2899 11.695C18.355 11.6465 18.4149 11.5916 18.4689 11.531V11.537L18.5769 11.415L18.6629 11.262L18.6869 11.155L18.6679 11.019L18.6139 10.93L18.5469 10.838L18.4739 10.759L18.4339 10.723L18.4169 10.697L18.2389 10.705L18.1459 10.815L18.0279 10.953L18.2169 11.094V11.1C18.2269 11.1 18.2279 11.1 18.2349 11.107H18.2409C18.2479 11.1097 18.2542 11.1137 18.2596 11.1188C18.2649 11.1239 18.2692 11.13 18.2722 11.1368C18.2752 11.1436 18.2768 11.1509 18.2769 11.1583C18.277 11.1658 18.2757 11.1731 18.2729 11.18C18.0639 11.636 17.5079 11.63 17.4589 12.209C17.4415 12.2987 17.444 12.3912 17.4662 12.4798C17.4884 12.5685 17.5299 12.6512 17.5876 12.7221C17.6453 12.7929 17.7179 12.8503 17.8002 12.89C17.8825 12.9297 17.9725 12.9509 18.0639 12.952C18.1359 12.937 18.4639 13.093 18.4279 13.11V13.117L18.4129 13.131L18.5629 13.265V13.251V13.42L18.7259 13.451L18.7649 13.436L18.8119 13.454L18.9479 13.355ZM17.7289 12.843H17.7379H17.7289ZM17.3229 10.485C17.3209 10.5628 17.3235 10.6406 17.3309 10.718V10.734C17.3312 10.7728 17.3403 10.811 17.3576 10.8457C17.375 10.8803 17.4001 10.9106 17.4309 10.934V10.942H17.4499C17.5004 10.9684 17.5591 10.9745 17.6139 10.959H17.8999L17.8739 10.924L17.9609 10.624C17.8857 10.6499 17.8064 10.6614 17.7269 10.658H17.6999C17.6732 10.6576 17.6471 10.6504 17.6239 10.637L17.6119 10.628C17.6001 10.6146 17.5921 10.5982 17.5888 10.5806C17.5854 10.563 17.5869 10.5449 17.5929 10.528C17.6819 10.541 17.9599 10.309 17.9439 10.302C17.8839 10.277 17.7139 10.483 17.5939 10.425C17.5249 10.391 17.8669 9.86401 17.7939 9.86401C17.7566 9.88314 17.7228 9.90851 17.6939 9.93901C17.6822 9.93412 17.6702 9.93011 17.6579 9.92701C17.6408 9.91903 17.6215 9.91725 17.6032 9.922C17.585 9.92674 17.569 9.93771 17.5579 9.95301L17.5479 9.96001C17.5319 9.97101 17.5159 9.98401 17.4959 10C17.4217 10.0581 17.353 10.123 17.2909 10.194C17.1899 10.319 17.2859 10.371 17.3229 10.485Z" fill="#A8AC71"/>
<path d="M23.672 11.76C23.853 11.734 23.563 11.569 23.572 11.576L23.456 11.398C23.2142 10.7326 22.7727 10.158 22.192 9.75302L22.266 9.80702C22.2414 9.7897 22.2164 9.77302 22.191 9.75702C22.191 9.74102 22.31 9.59302 22.286 9.57902C22.116 9.47902 22.021 9.62402 21.808 9.44902C21.544 9.28302 20.049 8.64902 19.908 9.13202C19.9024 9.14595 19.8981 9.16034 19.895 9.17502C19.549 9.13402 19.414 9.40502 19.61 9.63802C19.806 9.87102 20.367 9.82202 20.175 10.299L20.275 10.776L20.346 11.03L20.333 11.082L20.31 11.09L20.378 11.552L20.821 12.304L20.926 12.286L21.021 12.307C21.0725 12.2566 21.1131 12.196 21.14 12.129L21.195 12.152C21.429 12.391 21.638 12.585 21.872 12.842C21.8931 12.8731 21.9158 12.9032 21.94 12.932C21.974 12.969 22.003 12.968 22.027 12.932C21.841 12.801 21.875 12.502 21.733 12.341L21.718 12.325C22.076 12.284 22.144 12.841 22.286 13.051L22.376 13.151C22.292 13.135 22.176 12.414 22.091 12.333L22.119 12.344C22.142 12.3608 22.1664 12.3755 22.192 12.388C22.266 12.53 22.665 13.21 22.611 13.324C22.723 13.087 22.454 12.611 22.447 12.35H22.472H22.464L22.479 12.358L22.492 12.368C22.658 12.497 22.677 13.046 22.721 13.227C22.7501 13.4557 22.8034 13.6806 22.88 13.898C22.8244 13.3779 22.7964 12.8551 22.796 12.332H22.802C22.9544 12.9 23.066 13.4781 23.136 14.062C23.2189 13.4746 23.225 12.879 23.154 12.29L23.164 12.299C23.3103 12.9482 23.389 13.6107 23.399 14.276C23.409 14.276 23.49 14 23.493 13.995C23.7291 13.2735 23.7579 12.5001 23.576 11.763C23.601 11.768 23.646 11.764 23.672 11.76Z" fill="#4D2A15"/>
<path d="M18.0625 13.683C18.1425 13.811 18.2485 13.805 18.3525 13.694L18.1415 13.613L18.0625 13.683Z" fill="#202220"/>
<path d="M18.125 13.656C18.1491 13.6797 18.1778 13.6982 18.2094 13.7103C18.241 13.7225 18.2747 13.7279 18.3085 13.7264C18.3423 13.7249 18.3754 13.7165 18.4058 13.7016C18.4361 13.6867 18.4631 13.6658 18.485 13.64L18.301 13.5L18.125 13.656Z" fill="#202220"/>
<path d="M18.2734 13.572C18.3504 13.692 18.4504 13.712 18.5444 13.607L18.4224 13.433L18.2734 13.572ZM18.5134 13.036C18.3474 13.046 18.2804 13.159 18.3134 13.327C18.3716 13.3034 18.4215 13.2632 18.457 13.2115C18.4926 13.1598 18.5122 13.0988 18.5134 13.036Z" fill="#202220"/>
<path d="M19.1991 13.474C19.1682 13.4731 19.138 13.4646 19.1112 13.4492C19.0843 13.4339 19.0616 13.4122 19.0451 13.386C19.1031 13.333 19.1001 13.286 19.0351 13.252C19.0072 13.1689 18.9562 13.0954 18.8881 13.04C18.8631 13.028 18.9151 13.322 18.9051 13.34C18.8951 13.358 18.8881 13.354 18.8921 13.365C18.8811 13.365 18.7981 13.425 18.7771 13.429C18.7215 13.4046 18.6631 13.3871 18.6031 13.377C18.7471 13.203 18.4571 13.211 18.3681 13.277V13.264L18.4171 13.072C18.3898 13.0562 18.3589 13.0472 18.3273 13.0461C18.2957 13.0449 18.2643 13.0515 18.2359 13.0654C18.2074 13.0792 18.1828 13.0998 18.1642 13.1254C18.1456 13.151 18.1335 13.1807 18.1291 13.212C18.0551 13.203 18.0121 13.249 18.0001 13.348C17.9221 13.33 17.9211 13.462 17.9541 13.505C17.9328 13.537 17.9468 13.5704 17.9961 13.605C17.9671 13.673 18.0711 13.77 18.1321 13.669C18.1611 13.669 18.2741 13.591 18.2891 13.581C18.3165 13.5842 18.3442 13.5781 18.3676 13.5635C18.391 13.549 18.4088 13.527 18.4181 13.501C18.4431 13.58 18.5481 13.733 18.6441 13.727C18.6921 13.727 18.7791 13.633 18.8291 13.572C18.8481 13.629 18.8751 13.652 18.9101 13.64L18.9871 13.762L19.2761 13.749L19.3971 13.632C19.3971 13.632 19.3041 13.478 19.1991 13.474ZM21.5881 14.757C21.5771 14.64 21.4971 14.609 21.3881 14.649C21.3779 14.6278 21.3626 14.6094 21.3436 14.5954C21.3246 14.5815 21.3025 14.5724 21.2791 14.569C21.2512 14.529 21.2096 14.5005 21.1621 14.489C21.1131 14.4282 21.0563 14.374 20.9931 14.328V14.142L20.7711 14.366V14.404C20.7037 14.4489 20.6324 14.4877 20.5581 14.52C20.5371 14.51 20.4391 14.539 20.4061 14.534C20.2061 14.562 20.0911 14.851 20.3461 14.808C20.2461 15.022 20.5461 15.072 20.6381 14.9C20.7051 14.864 20.7761 14.8 20.8381 14.769C20.8591 14.824 20.9501 14.796 20.9671 14.761H20.9821C21.0301 14.821 21.0821 14.82 21.1291 14.761H21.1361L21.2071 14.773C21.2071 14.8 21.2231 14.813 21.2471 14.812C21.26 14.8623 21.2906 14.9063 21.3331 14.936L21.5031 14.948L21.6291 14.793C21.6301 14.7876 21.6296 14.7821 21.6278 14.7769C21.6259 14.7718 21.6228 14.7672 21.6187 14.7636C21.6146 14.7599 21.6096 14.7574 21.6043 14.7563C21.5989 14.7552 21.5934 14.7554 21.5881 14.757Z" fill="#F8C83C"/>
<path d="M20.0743 14.9C20.4893 14.6 19.8003 14.6 20.0743 14.9V14.9ZM20.3893 15.221C20.4053 15.161 20.4693 14.874 20.3473 14.859C20.1243 14.831 20.2923 15.168 20.3893 15.221ZM21.5243 15.111C21.7663 15.136 21.6543 15.028 21.7333 14.911C21.8523 14.736 21.3723 14.8111 21.4943 14.9431C21.6163 15.0751 21.5203 15.004 21.5243 15.11V15.111Z" fill="#202220"/>
<path d="M22.8728 14.123C22.3368 13.708 21.7868 13.31 21.2448 12.904C21.2596 12.6884 21.2011 12.4741 21.0788 12.296C21.1301 12.2414 21.1602 12.1703 21.1637 12.0955C21.1672 12.0207 21.1438 11.9471 21.0978 11.888C21.1978 12.022 21.0798 12.317 20.8978 12.211C20.8641 12.1059 20.8181 12.0052 20.7608 11.911C20.6938 11.783 20.5608 11.583 20.5608 11.582L20.5358 11.529C20.4788 11.407 20.4098 11.293 20.3608 11.167C20.3858 10.9758 20.3649 10.7815 20.2998 10.6C20.3208 10.5704 20.3401 10.5397 20.3578 10.508C20.2395 10.2828 20.0832 10.0799 19.8958 9.90799C19.9064 9.87551 19.9064 9.84048 19.8958 9.80799C19.6858 9.84799 19.5558 9.73299 19.3268 9.73599C19.3274 9.72934 19.3274 9.72265 19.3268 9.71599C19.314 9.72487 19.2994 9.73097 19.2841 9.7339C19.2688 9.73682 19.253 9.73652 19.2378 9.73299C19.2297 9.64287 19.1948 9.55723 19.1378 9.48699C19.1161 9.58346 19.0655 9.67102 18.9928 9.73799C18.9885 9.67678 18.9798 9.61596 18.9668 9.55599V9.57299C18.9518 9.45799 18.9018 9.47299 18.9008 9.47299C18.9108 9.60671 18.886 9.74074 18.8288 9.86199L18.7338 9.90499C18.8148 9.81799 18.7548 9.66899 18.6838 9.60499C18.6966 9.67625 18.6926 9.74952 18.6721 9.81896C18.6517 9.88841 18.6152 9.95211 18.5658 10.005C18.5728 9.97999 18.5908 9.74299 18.5098 9.74999V9.75999C18.5248 9.88799 18.0718 10.427 18.2098 10.419C18.2242 10.4251 18.2393 10.4291 18.2548 10.431C18.2705 10.4429 18.2902 10.4483 18.3098 10.446C18.4508 10.566 18.7178 10.497 18.8778 10.512C18.9518 10.634 19.0868 10.564 19.0968 10.721C19.1068 10.878 19.1038 10.721 19.1088 10.721C19.0838 10.77 18.9798 10.978 19.0288 11.006C19.0406 11.0122 19.0535 11.0163 19.0668 11.018C18.9668 11.177 18.8328 11.328 18.8868 11.426H18.9078C18.9061 11.4396 18.9061 11.4534 18.9078 11.467C18.7873 11.6281 18.7291 11.8273 18.7438 12.028C18.7438 12.128 18.9178 12.47 18.8898 12.504C18.9216 12.4911 18.9524 12.4757 18.9818 12.458C18.9998 12.489 19.0278 12.535 19.0628 12.588C19.0554 12.705 19.0766 12.822 19.1245 12.9289C19.1724 13.0359 19.2456 13.1296 19.3378 13.202L19.2678 13.148C19.2469 13.1211 19.2174 13.1023 19.1842 13.0947C19.1511 13.087 19.1163 13.091 19.0858 13.106C19.1003 13.1642 19.1297 13.2177 19.1711 13.2611C19.2124 13.3046 19.2644 13.3366 19.3218 13.354C19.268 13.3561 19.2156 13.3721 19.1699 13.4005C19.1241 13.4289 19.0865 13.4687 19.0608 13.516C19.0608 13.547 19.1268 13.591 19.2428 13.645C19.2568 13.645 18.9968 13.624 19.0218 13.603C19.0218 13.624 19.0528 13.652 19.0528 13.652H19.0588H19.0508H19.0578C19.0148 13.6383 18.969 13.6363 18.925 13.6463C18.881 13.6563 18.8405 13.678 18.8078 13.709C18.9428 13.7967 19.0974 13.8496 19.2578 13.863C19.2446 13.8769 19.2354 13.894 19.2312 13.9127C19.2269 13.9313 19.2278 13.9508 19.2338 13.969C19.42 13.9872 19.6076 13.9547 19.7768 13.875C19.7895 13.9004 19.806 13.9237 19.8258 13.944C19.6878 13.764 19.8668 14.03 19.8968 14.027C19.9968 14.017 19.9748 13.716 19.9728 13.673C20.1068 13.825 20.2438 13.973 20.2438 13.973C20.2438 13.973 20.2958 14.034 20.3248 14.026C20.3438 14.08 20.5108 14.449 20.5898 14.412C20.6234 14.3881 20.6466 14.3524 20.6548 14.312L20.6488 14.32C20.6718 14.24 20.8698 14.52 20.9058 14.511C20.9178 14.511 20.9058 14.448 20.9058 14.448C20.9098 14.3728 20.8996 14.2975 20.8758 14.226C20.9248 14.298 21.0118 14.416 21.0498 14.404C21.0677 14.3447 21.0721 14.2822 21.0628 14.221C21.0917 14.257 21.1318 14.2823 21.1768 14.293C21.1887 14.2705 21.1955 14.2457 21.1969 14.2204C21.1983 14.195 21.1941 14.1696 21.1848 14.146C21.1874 14.1074 21.1843 14.0687 21.1758 14.031L21.5088 14.423C21.5828 14.481 21.7088 14.507 21.7598 14.408C21.7796 14.4374 21.806 14.4619 21.8369 14.4793C21.8678 14.4968 21.9023 14.5068 21.9378 14.5085C21.9732 14.5103 22.0086 14.5037 22.041 14.4894C22.0735 14.4751 22.1022 14.4534 22.1248 14.426C22.2528 14.526 22.4478 14.432 22.5618 14.349C22.6038 14.364 23.0708 14.271 22.9828 14.19C22.9458 14.177 22.9098 14.149 22.8728 14.123ZM18.5058 9.75299V9.75799V9.75299ZM18.7998 13.722L18.8158 13.731L18.7988 13.722H18.7998Z" fill="#8F4620"/>
<path d="M18.5142 10.12C18.543 10.1476 18.5609 10.1847 18.5648 10.2244C18.5686 10.2641 18.5581 10.3039 18.5351 10.3366C18.5121 10.3692 18.4783 10.3925 18.4396 10.4023C18.4009 10.4121 18.36 10.4078 18.3242 10.39" fill="white"/>
<path d="M18.5059 10.139C18.5297 10.1639 18.544 10.1963 18.5463 10.2306C18.5486 10.265 18.5388 10.299 18.5185 10.3269C18.4983 10.3547 18.469 10.3746 18.4356 10.383C18.4022 10.3914 18.367 10.3879 18.3359 10.373" fill="#F16E16"/>
<path d="M18.4437 10.218C18.5607 10.232 18.4437 10.391 18.3867 10.305L18.4437 10.218Z" fill="black"/>
<path d="M18.449 10.291C18.448 10.296 18.4452 10.3004 18.4411 10.3033C18.437 10.3063 18.432 10.3076 18.427 10.307C18.376 10.3 18.458 10.239 18.449 10.291Z" fill="#D5D3CA"/>
<path d="M18.9773 10.617L18.9873 10.612C18.9873 10.529 18.2673 10.417 18.1873 10.42C18.1603 10.408 18.1393 10.42 18.1233 10.447C18.1228 10.444 18.1212 10.4413 18.1188 10.4394C18.1164 10.4376 18.1133 10.4367 18.1103 10.437H18.1013V10.446C18.0901 10.4586 18.0797 10.472 18.0703 10.486C18.0613 10.4967 18.056 10.51 18.0553 10.524V10.53C18.0553 10.54 18.0653 10.545 18.0713 10.552H18.0523C17.9899 10.582 17.9379 10.63 17.9033 10.69L17.8883 10.711C17.8722 10.7391 17.8604 10.7694 17.8533 10.801C17.8496 10.8061 17.8477 10.8122 17.8477 10.8185C17.8477 10.8248 17.8496 10.8309 17.8533 10.836C17.8528 10.8447 17.8528 10.8533 17.8533 10.862V10.908L17.8933 10.989L17.9663 11.063L18.0803 11.135L18.1593 11.154L18.2253 11.137L18.2513 11.117L18.1843 11.058L18.1213 10.95C18.0753 10.785 18.2753 10.717 18.3993 10.706L18.4333 10.712C18.4333 10.712 18.4463 10.722 18.4653 10.74H18.4513L18.4733 10.761H18.4793C18.4944 10.7798 18.5111 10.7972 18.5293 10.813V10.819L18.5053 10.824L18.5473 10.885C18.5473 10.885 19.0283 10.722 18.9883 10.634L18.9773 10.617ZM17.9593 11.048L17.9683 11.058L17.9593 11.048Z" fill="#F9C83A"/>
<path d="M18.4121 10.687L18.4331 10.708L18.4051 10.702C18.3961 10.702 18.4121 10.687 18.4121 10.687Z" fill="#F9C83A"/>
<path d="M18.4342 10.709H18.3932C18.3832 10.709 18.4052 10.697 18.4052 10.697L18.4342 10.709Z" fill="#8F4620"/>
<path d="M18.8086 13.416C18.8226 13.4145 18.8357 13.4081 18.8456 13.398C18.8566 13.382 18.8386 13.422 18.8386 13.422L18.8216 13.428L18.8086 13.416Z" fill="#977C2E"/>
<g opacity="0.5">
<path d="M39 1V26H1V1H39ZM40 0H0V27H40V0Z" fill="#BABABA"/>
</g>
</svg>
