<svg width="136" height="29" viewBox="0 0 136 29" fill="none" xmlns="http://www.w3.org/2000/svg">
<path d="M62.3165 10.7354H59.3828V23.1921H62.3165V10.7354Z" fill="#706D6E"/>
<path d="M60.8853 5.42682C60.3986 5.42682 59.9776 5.5845 59.6356 5.913C59.2935 6.2415 59.1094 6.64884 59.1094 7.13502C59.1094 7.60806 59.2804 8.0154 59.6224 8.33076C59.9645 8.64612 60.3854 8.8038 60.8722 8.8038C61.3589 8.8038 61.7931 8.64612 62.1351 8.33076C62.4771 8.0154 62.6613 7.60806 62.6613 7.13502C62.6613 6.66198 62.4903 6.25464 62.1483 5.92614C61.8194 5.59764 61.3984 5.42682 60.8853 5.42682Z" fill="#706D6E"/>
<path d="M72.5385 20.7875C72.0254 20.9714 71.5518 21.0634 71.1309 21.0634C69.9864 21.0634 69.0523 20.7086 68.3814 19.9991C67.7105 19.2895 67.3684 18.2909 67.3684 17.0426C67.3684 15.7811 67.7236 14.7562 68.4209 14.0072C69.1181 13.2583 70.039 12.8772 71.1703 12.8772C72.1307 12.8772 73.0779 13.2057 73.9593 13.8496L74.0777 13.9415V11.1164L74.0382 11.0902C73.7093 10.9062 73.2489 10.7485 72.6832 10.6303C72.1175 10.512 71.565 10.4594 71.0388 10.4594C69.6969 10.4594 68.4998 10.7485 67.4737 11.3135C66.4476 11.8786 65.6583 12.6932 65.1189 13.7313C64.5795 14.7562 64.3164 15.9651 64.3164 17.3054C64.3164 18.488 64.5795 19.5655 65.1057 20.5115C65.6319 21.4708 66.3686 22.2066 67.3027 22.7322C68.2367 23.2447 69.3154 23.5075 70.5126 23.5075C71.907 23.5075 73.091 23.2315 74.0514 22.6796L74.0908 22.6534V19.9728L73.9724 20.0648C73.5515 20.3539 73.0647 20.6035 72.5385 20.7875Z" fill="#706D6E"/>
<path d="M47.1497 18.7114L42.0454 5.80789H37.7305V23.1921H40.5457V9.81559H40.6378L46.0315 23.1921H48.1627L53.4643 9.81559H53.5695V23.1921H56.5558V5.80789H52.4118L47.1497 18.7114Z" fill="#706D6E"/>
<path d="M103.06 15.8731C102.139 15.5052 101.547 15.1899 101.297 14.9533C101.06 14.73 100.942 14.4015 100.942 13.9941C100.942 13.6262 101.087 13.3371 101.389 13.1006C101.692 12.8641 102.126 12.7458 102.652 12.7458C103.152 12.7458 103.652 12.8247 104.152 12.9823C104.652 13.14 105.099 13.3371 105.467 13.5868L105.586 13.6656V10.9719L105.533 10.9456C105.191 10.8011 104.744 10.6697 104.204 10.5777C103.665 10.4726 103.165 10.42 102.744 10.42C101.35 10.42 100.192 10.7748 99.3106 11.4844C98.416 12.1939 97.9688 13.1269 97.9688 14.2438C97.9688 14.822 98.0608 15.3475 98.2582 15.7943C98.4555 16.2411 98.7449 16.6221 99.1396 16.9506C99.5342 17.2791 100.139 17.6076 100.942 17.9624C101.613 18.2384 102.126 18.4749 102.442 18.6588C102.757 18.8428 102.981 19.0267 103.099 19.1976C103.218 19.3684 103.284 19.6049 103.284 19.9071C103.284 20.7481 102.652 21.1554 101.363 21.1554C100.889 21.1554 100.337 21.0503 99.7447 20.8532C99.1527 20.6561 98.587 20.3802 98.0871 20.0122L97.9688 19.9203V22.7717L98.0082 22.7979C98.4292 22.995 98.9554 23.1527 99.5869 23.2841C100.205 23.4155 100.771 23.4812 101.271 23.4812C102.784 23.4812 104.007 23.1264 104.902 22.4169C105.796 21.7073 106.257 20.7481 106.257 19.5918C106.257 18.7508 106.007 18.0281 105.533 17.4499C105.046 16.8718 104.218 16.3462 103.06 15.8731Z" fill="#706D6E"/>
<path d="M114.135 10.4332C112.083 10.4332 110.452 11.0376 109.281 12.2202C108.123 13.4028 107.531 15.0453 107.531 17.1083C107.531 19.053 108.11 20.6298 109.241 21.773C110.373 22.9162 111.925 23.4943 113.833 23.4943C115.819 23.4943 117.424 22.8899 118.595 21.681C119.753 20.4853 120.345 18.8559 120.345 16.8455C120.345 14.8614 119.792 13.2845 118.7 12.1545C117.608 11.0113 116.082 10.4332 114.135 10.4332ZM116.477 20.0254C115.924 20.7087 115.096 21.0634 114.017 21.0634C112.938 21.0634 112.096 20.7087 111.491 19.9991C110.886 19.2895 110.583 18.2909 110.583 17.0032C110.583 15.6892 110.886 14.6511 111.491 13.9284C112.096 13.2188 112.938 12.8509 113.991 12.8509C115.017 12.8509 115.845 13.1926 116.424 13.8758C117.016 14.5591 117.319 15.584 117.319 16.9243C117.306 18.2909 117.029 19.329 116.477 20.0254Z" fill="#706D6E"/>
<path d="M82.3679 10.512C81.6312 10.512 80.9734 10.7485 80.4077 11.2084C79.9078 11.6158 79.5526 12.1808 79.2764 12.8772H79.2501V10.7223H76.3164V23.1921H79.2501V16.8192C79.2501 15.7417 79.5 14.8482 79.9867 14.1781C80.4603 13.5079 81.105 13.1794 81.8811 13.1794C82.1442 13.1794 82.4468 13.2189 82.7625 13.3108C83.0783 13.4028 83.315 13.4948 83.4466 13.5868L83.565 13.6788V10.7091L83.5124 10.6828C83.2493 10.5777 82.8546 10.512 82.3679 10.512Z" fill="#706D6E"/>
<path d="M135.871 20.6955C135.713 20.8006 135.502 20.8926 135.279 20.9583C135.042 21.024 134.844 21.0634 134.687 21.0634C134.108 21.0634 133.687 20.9058 133.424 20.6035C133.161 20.3013 133.016 19.7626 133.016 19.0005V13.1269H135.989V10.7354H133.016V7.01677L132.911 7.04305L130.122 7.89715L130.069 7.91029V10.7223H125.662V9.15859C125.662 8.42275 125.82 7.87087 126.149 7.50295C126.465 7.13503 126.925 6.95107 127.504 6.95107C127.925 6.95107 128.359 7.05619 128.793 7.24015L128.898 7.29271V4.78297L128.846 4.76983C128.438 4.62529 127.885 4.54645 127.201 4.54645C126.333 4.54645 125.544 4.73041 124.86 5.11147C124.176 5.47939 123.636 6.01813 123.255 6.70141C122.873 7.38469 122.689 8.15995 122.689 9.02719V10.7485H120.637V13.14H122.702V23.1921H125.675V13.1269H130.082V19.5129C130.082 22.1409 131.332 23.4812 133.779 23.4812C134.187 23.4812 134.608 23.4286 135.042 23.3367C135.489 23.2447 135.779 23.1527 135.963 23.0476L136.002 23.0213V20.6167L135.871 20.6955Z" fill="#706D6E"/>
<path d="M90.3657 10.4332C88.3135 10.4332 86.6822 11.0376 85.5114 12.2202C84.3537 13.4028 83.7617 15.0453 83.7617 17.1083C83.7617 19.053 84.3406 20.6298 85.4719 21.773C86.6033 22.9162 88.1556 23.4943 90.0631 23.4943C92.0496 23.4943 93.6545 22.8899 94.8254 21.681C95.983 20.4853 96.575 18.8559 96.575 16.8455C96.575 14.8614 96.0225 13.2845 94.9306 12.1545C93.8387 11.0113 92.2995 10.4332 90.3657 10.4332ZM92.6942 20.0254C92.1417 20.7087 91.3129 21.0634 90.2341 21.0634C89.1554 21.0634 88.3135 20.7087 87.7083 19.9991C87.1032 19.2895 86.8006 18.2909 86.8006 17.0032C86.8006 15.6892 87.1032 14.6511 87.7083 13.9284C88.3003 13.2188 89.1423 12.8509 90.2078 12.8509C91.234 12.8509 92.0627 13.1926 92.6416 13.8758C93.2336 14.5591 93.5361 15.584 93.5361 16.9243C93.5361 18.2909 93.2467 19.329 92.6942 20.0254Z" fill="#706D6E"/>
<path d="M13.8 13.7839H0V0H13.8V13.7839Z" fill="#F1511B"/>
<path d="M29.0343 13.7839H15.2344V0H29.0343V13.7839Z" fill="#80CC28"/>
<path d="M13.8 29H0V15.2293H13.8V29Z" fill="#00ADEF"/>
<path d="M29.0343 29H15.2344V15.2293H29.0343V29Z" fill="#FBBC09"/>
</svg>
